  0
SECTION
  2
HEADER
  9
$ACADVER
  1
AC1009
  9
$INSBASE
 10
0.0
 20
0.0
 30
0.0
  9
$EXTMIN
 10
0.0
 20
0.0
 30
0.0
  9
$EXTMAX
 10
100.0
 20
100.0
 30
0.0
  9
$UNITMODE
 70
0
  9
$AUNITS
 70
0
  9
$ANGBASE
 50
0.0
  9
$ANGDIR
 70
0
  0
ENDSEC
  0
SECTION
  2
TABLES
  0
TABLE
  2
LTYPE
 70
19
  0
LTYPE
  2
CONTINUOUS
 70
0
  3
Solid
 72
65
 73
0
 40
0.0
  0
LTYPE
  2
CENTER
 70
0
  3
Center ____ _ ____ _ ____ _ ____ _ ____ _ ____
 72
65
 73
4
 40
2.0
 49
1.25
 49
-0.25
 49
0.25
 49
-0.25
  0
LTYPE
  2
CENTERX2
 70
0
  3
Center (2x) ________  __  ________  __  ________
 72
65
 73
4
 40
3.5
 49
2.5
 49
-0.25
 49
0.5
 49
-0.25
  0
LTYPE
  2
CENTER2
 70
0
  3
Center (.5x) ____ _ ____ _ ____ _ ____ _ ____
 72
65
 73
4
 40
1.0
 49
0.625
 49
-0.125
 49
0.125
 49
-0.125
  0
LTYPE
  2
DASHED
 70
0
  3
Dashed __ __ __ __ __ __ __ __ __ __ __ __ __ _
 72
65
 73
2
 40
0.6
 49
0.5
 49
-0.1
  0
LTYPE
  2
DASHEDX2
 70
0
  3
Dashed (2x) ____  ____  ____  ____  ____  ____
 72
65
 73
2
 40
1.2
 49
1.0
 49
-0.2
  0
LTYPE
  2
DASHED2
 70
0
  3
Dashed (.5x) _ _ _ _ _ _ _ _ _ _ _ _ _ _
 72
65
 73
2
 40
0.3
 49
0.25
 49
-0.05
  0
LTYPE
  2
PHANTOM
 70
0
  3
Phantom ______  __  __  ______  __  __  ______
 72
65
 73
6
 40
2.5
 49
1.25
 49
-0.25
 49
0.25
 49
-0.25
 49
0.25
 49
-0.25
  0
LTYPE
  2
PHANTOMX2
 70
0
  3
Phantom (2x)____________    ____    ____    ____________
 72
65
 73
6
 40
4.25
 49
2.5
 49
-0.25
 49
0.5
 49
-0.25
 49
0.5
 49
-0.25
  0
LTYPE
  2
PHANTOM2
 70
0
  3
Phantom (.5x) ___ _ _ ___ _ _ ___ _ _ ___ _ _ ___
 72
65
 73
6
 40
1.25
 49
0.625
 49
-0.125
 49
0.125
 49
-0.125
 49
0.125
 49
-0.125
  0
LTYPE
  2
DASHDOT
 70
0
  3
Dash dot __ . __ . __ . __ . __ . __ . __ . __
 72
65
 73
4
 40
1.4
 49
1.0
 49
-0.2
 49
0.0
 49
-0.2
  0
LTYPE
  2
DASHDOTX2
 70
0
  3
Dash dot (2x) ____  .  ____  .  ____  .  ____
 72
65
 73
4
 40
2.4
 49
2.0
 49
-0.2
 49
0.0
 49
-0.2
  0
LTYPE
  2
DASHDOT2
 70
0
  3
Dash dot (.5x) _ . _ . _ . _ . _ . _ . _ . _
 72
65
 73
4
 40
0.7
 49
0.5
 49
-0.1
 49
0.0
 49
-0.1
  0
LTYPE
  2
DOT
 70
0
  3
Dot .  .  .  .  .  .  .  .  .  .  .  .  .  .  .  .
 72
65
 73
2
 40
0.2
 49
0.0
 49
-0.2
  0
LTYPE
  2
DOTX2
 70
0
  3
Dot (2x) .    .    .    .    .    .    .    . 
 72
65
 73
2
 40
0.4
 49
0.0
 49
-0.4
  0
LTYPE
  2
DOT2
 70
0
  3
Dot (.5) . . . . . . . . . . . . . . . . . . . 
 72
65
 73
2
 40
0.1
 49
0.0
 49
-0.1
  0
LTYPE
  2
DIVIDE
 70
0
  3
Divide __ . . __ . . __ . . __ . . __ . . __
 72
65
 73
6
 40
1.6
 49
1.0
 49
-0.2
 49
0.0
 49
-0.2
 49
0.0
 49
-0.2
  0
LTYPE
  2
DIVIDEX2
 70
0
  3
Divide (2x) ____  . .  ____  . .  ____  . .  ____
 72
65
 73
6
 40
2.6
 49
2.0
 49
-0.2
 49
0.0
 49
-0.2
 49
0.0
 49
-0.2
  0
LTYPE
  2
DIVIDE2
 70
0
  3
Divide(.5x) _ . _ . _ . _ . _ . _ . _ . _
 72
65
 73
6
 40
0.8
 49
0.5
 49
-0.1
 49
0.0
 49
-0.1
 49
0.0
 49
-0.1
  0
ENDTAB
  0
TABLE
  2
LAYER
 70
12
  0
LAYER
  2
DIMENSIONS
 70
0
 62
1
  6
CONTINUOUS
  0
LAYER
  2
TABLEBACKGROUND
 70
0
 62
1
  6
CONTINUOUS
  0
LAYER
  2
TABLECONTENT
 70
0
 62
1
  6
CONTINUOUS
  0
LAYER
  2
TABLEGRID
 70
0
 62
1
  6
CONTINUOUS
  0
LAYER
  2
VIEWPORTS
 70
0
 62
7
  6
CONTINUOUS
  0
LAYER
  2
01-Red
 70
0
 62
1
  6
CONTINUOUS
  0
LAYER
  2
02-Yellow
 70
0
 62
2
  6
CONTINUOUS
  0
LAYER
  2
03-Green
 70
0
 62
3
  6
CONTINUOUS
  0
LAYER
  2
04-Cyan
 70
0
 62
4
  6
CONTINUOUS
  0
LAYER
  2
05-Blue
 70
0
 62
5
  6
CONTINUOUS
  0
LAYER
  2
06-Magenta
 70
0
 62
6
  6
CONTINUOUS
  0
LAYER
  2
30-Orange
 70
0
 62
30
  6
CONTINUOUS
  0
ENDTAB
  0
TABLE
  2
STYLE
 70
12
  0
STYLE
  2
STANDARD
 70
0
 40
0.0
 41
1.0
 42
1.0
 50
0.0
 71
0
  3
arial.ttf
  4

  0
STYLE
  2
ARIAL
 70
0
 40
0.0
 41
1.0
 42
1.0
 50
0.0
 71
0
  3
arial.ttf
  4

  0
STYLE
  2
ARIAL_BOLD
 70
0
 40
0.0
 41
1.0
 42
1.0
 50
0.0
 71
0
  3
arialbd.ttf
  4

  0
STYLE
  2
ARIAL_ITALIC
 70
0
 40
0.0
 41
1.0
 42
1.0
 50
0.0
 71
0
  3
ariali.ttf
  4

  0
STYLE
  2
ARIAL_BOLD_ITALIC
 70
0
 40
0.0
 41
1.0
 42
1.0
 50
0.0
 71
0
  3
arialbi.ttf
  4

  0
STYLE
  2
ARIAL_BLACK
 70
0
 40
0.0
 41
1.0
 42
1.0
 50
0.0
 71
0
  3
ariblk.ttf
  4

  0
STYLE
  2
ISOCPEUR
 70
0
 40
0.0
 41
1.0
 42
1.0
 50
0.0
 71
0
  3
isocpeur.ttf
  4

  0
STYLE
  2
ISOCPEUR_ITALIC
 70
0
 40
0.0
 41
1.0
 42
1.0
 50
0.0
 71
0
  3
isocpeui.ttf
  4

  0
STYLE
  2
TIMES
 70
0
 40
0.0
 41
1.0
 42
1.0
 50
0.0
 71
0
  3
times.ttf
  4

  0
STYLE
  2
TIMES_BOLD
 70
0
 40
0.0
 41
1.0
 42
1.0
 50
0.0
 71
0
  3
timesbd.ttf
  4

  0
STYLE
  2
TIMES_ITALIC
 70
0
 40
0.0
 41
1.0
 42
1.0
 50
0.0
 71
0
  3
timesi.ttf
  4

  0
STYLE
  2
TIMES_BOLD_ITALIC
 70
0
 40
0.0
 41
1.0
 42
1.0
 50
0.0
 71
0
  3
timesbi.ttf
  4

  0
ENDTAB
  0
TABLE
  2
VIEW
 70
0
  0
ENDTAB
  0
TABLE
  2
APPID
 70
1
  0
APPID
  2
DXFWRITE
 70
0
  0
ENDTAB
  0
TABLE
  2
VPORT
 70
0
  0
ENDTAB
  0
TABLE
  2
UCS
 70
0
  0
ENDTAB
  0
ENDSEC
  0
SECTION
  2
BLOCKS
  0
ENDSEC
  0
SECTION
  2
ENTITIES
  0
VIEWPORT
  8
VIEWPORTS
 67
1
 10
0.0
 20
0.0
 30
0.0
 40
1.0
 41
1.0
 68
1
 69
1
1001
ACAD
1000
MVIEW
1002
{
1070
16
1010
0.0
1020
0.0
1030
0.0
1010
0.0
1020
0.0
1030
0.0
1040
0.0
1040
1.0
1040
0.0
1040
0.0
1040
50.0
1040
0.0
1040
0.0
1070
0
1070
100
1070
1
1070
3
1070
0
1070
0
1070
0
1070
0
1040
0.0
1040
0.0
1040
0.0
1040
0.1
1040
0.1
1040
0.1
1040
0.1
1070
0
1002
{
1002
}
1002
}
  0
POLYLINE
  8
04-Cyan
 66
1
 10
0.0
 20
0.0
 30
0.0
 70
8
  0
VERTEX
  8
04-Cyan
 10
496.0
 20
-189.0
 30
0.0
  0
VERTEX
  8
04-Cyan
 10
93.0
 20
-186.0
 30
0.0
  0
VERTEX
  8
04-Cyan
 10
95.0
 20
-233.0
 30
0.0
  0
VERTEX
  8
04-Cyan
 10
234.0
 20
-244.0
 30
0.0
  0
VERTEX
  8
04-Cyan
 10
73.0
 20
-508.0
 30
0.0
  0
VERTEX
  8
04-Cyan
 10
117.0
 20
-518.0
 30
0.0
  0
VERTEX
  8
04-Cyan
 10
294.0
 20
-239.0
 30
0.0
  0
VERTEX
  8
04-Cyan
 10
484.0
 20
-235.0
 30
0.0
  0
VERTEX
  8
04-Cyan
 10
496.0
 20
-189.0
 30
0.0
  0
SEQEND
  0
POLYLINE
  8
30-Orange
 66
1
 10
0.0
 20
0.0
 30
0.0
 70
8
  0
VERTEX
  8
30-Orange
 10
252.0
 20
-474.0
 30
0.0
  0
VERTEX
  8
30-Orange
 10
246.0
 20
-517.0
 30
0.0
  0
VERTEX
  8
30-Orange
 10
363.0
 20
-547.0
 30
0.0
  0
VERTEX
  8
30-Orange
 10
374.0
 20
-520.0
 30
0.0
  0
VERTEX
  8
30-Orange
 10
374.0
 20
-503.0
 30
0.0
  0
VERTEX
  8
30-Orange
 10
318.0
 20
-480.0
 30
0.0
  0
VERTEX
  8
30-Orange
 10
291.0
 20
-480.0
 30
0.0
  0
VERTEX
  8
30-Orange
 10
268.0
 20
-470.0
 30
0.0
  0
VERTEX
  8
30-Orange
 10
252.0
 20
-474.0
 30
0.0
  0
SEQEND
  0
POLYLINE
  8
30-Orange
 66
1
 10
0.0
 20
0.0
 30
0.0
 70
8
  0
VERTEX
  8
30-Orange
 10
78.0
 20
-374.0
 30
0.0
  0
VERTEX
  8
30-Orange
 10
73.0
 20
-378.0
 30
0.0
  0
VERTEX
  8
30-Orange
 10
58.0
 20
-437.0
 30
0.0
  0
VERTEX
  8
30-Orange
 10
79.0
 20
-447.0
 30
0.0
  0
VERTEX
  8
30-Orange
 10
96.0
 20
-447.0
 30
0.0
  0
VERTEX
  8
30-Orange
 10
104.0
 20
-441.0
 30
0.0
  0
VERTEX
  8
30-Orange
 10
113.0
 20
-423.0
 30
0.0
  0
VERTEX
  8
30-Orange
 10
121.0
 20
-383.0
 30
0.0
  0
VERTEX
  8
30-Orange
 10
111.0
 20
-376.0
 30
0.0
  0
VERTEX
  8
30-Orange
 10
78.0
 20
-374.0
 30
0.0
  0
SEQEND
  0
POLYLINE
  8
30-Orange
 66
1
 10
0.0
 20
0.0
 30
0.0
 70
8
  0
VERTEX
  8
30-Orange
 10
447.0
 20
-297.0
 30
0.0
  0
VERTEX
  8
30-Orange
 10
435.0
 20
-342.0
 30
0.0
  0
VERTEX
  8
30-Orange
 10
442.0
 20
-345.0
 30
0.0
  0
VERTEX
  8
30-Orange
 10
449.0
 20
-343.0
 30
0.0
  0
VERTEX
  8
30-Orange
 10
453.0
 20
-347.0
 30
0.0
  0
VERTEX
  8
30-Orange
 10
471.0
 20
-347.0
 30
0.0
  0
VERTEX
  8
30-Orange
 10
477.0
 20
-351.0
 30
0.0
  0
VERTEX
  8
30-Orange
 10
491.0
 20
-350.0
 30
0.0
  0
VERTEX
  8
30-Orange
 10
497.0
 20
-341.0
 30
0.0
  0
VERTEX
  8
30-Orange
 10
503.0
 20
-305.0
 30
0.0
  0
VERTEX
  8
30-Orange
 10
457.0
 20
-296.0
 30
0.0
  0
VERTEX
  8
30-Orange
 10
447.0
 20
-297.0
 30
0.0
  0
SEQEND
  0
POLYLINE
  8
30-Orange
 66
1
 10
0.0
 20
0.0
 30
0.0
 70
8
  0
VERTEX
  8
30-Orange
 10
137.0
 20
-241.0
 30
0.0
  0
VERTEX
  8
30-Orange
 10
124.0
 20
-277.0
 30
0.0
  0
VERTEX
  8
30-Orange
 10
125.0
 20
-285.0
 30
0.0
  0
VERTEX
  8
30-Orange
 10
166.0
 20
-289.0
 30
0.0
  0
VERTEX
  8
30-Orange
 10
177.0
 20
-273.0
 30
0.0
  0
VERTEX
  8
30-Orange
 10
181.0
 20
-245.0
 30
0.0
  0
VERTEX
  8
30-Orange
 10
164.0
 20
-244.0
 30
0.0
  0
VERTEX
  8
30-Orange
 10
154.0
 20
-240.0
 30
0.0
  0
VERTEX
  8
30-Orange
 10
137.0
 20
-241.0
 30
0.0
  0
SEQEND
  0
POLYLINE
  8
30-Orange
 66
1
 10
0.0
 20
0.0
 30
0.0
 70
8
  0
VERTEX
  8
30-Orange
 10
56.0
 20
-238.0
 30
0.0
  0
VERTEX
  8
30-Orange
 10
51.0
 20
-243.0
 30
0.0
  0
VERTEX
  8
30-Orange
 10
47.0
 20
-272.0
 30
0.0
  0
VERTEX
  8
30-Orange
 10
49.0
 20
-281.0
 30
0.0
  0
VERTEX
  8
30-Orange
 10
67.0
 20
-285.0
 30
0.0
  0
VERTEX
  8
30-Orange
 10
86.0
 20
-285.0
 30
0.0
  0
VERTEX
  8
30-Orange
 10
96.0
 20
-269.0
 30
0.0
  0
VERTEX
  8
30-Orange
 10
98.0
 20
-254.0
 30
0.0
  0
VERTEX
  8
30-Orange
 10
103.0
 20
-247.0
 30
0.0
  0
VERTEX
  8
30-Orange
 10
102.0
 20
-242.0
 30
0.0
  0
VERTEX
  8
30-Orange
 10
96.0
 20
-239.0
 30
0.0
  0
VERTEX
  8
30-Orange
 10
82.0
 20
-240.0
 30
0.0
  0
VERTEX
  8
30-Orange
 10
63.0
 20
-236.0
 30
0.0
  0
VERTEX
  8
30-Orange
 10
56.0
 20
-238.0
 30
0.0
  0
SEQEND
  0
POLYLINE
  8
30-Orange
 66
1
 10
0.0
 20
0.0
 30
0.0
 70
8
  0
VERTEX
  8
30-Orange
 10
193.0
 20
-53.0
 30
0.0
  0
VERTEX
  8
30-Orange
 10
176.0
 20
-52.0
 30
0.0
  0
VERTEX
  8
30-Orange
 10
151.0
 20
-66.0
 30
0.0
  0
VERTEX
  8
30-Orange
 10
139.0
 20
-81.0
 30
0.0
  0
VERTEX
  8
30-Orange
 10
140.0
 20
-127.0
 30
0.0
  0
VERTEX
  8
30-Orange
 10
145.0
 20
-127.0
 30
0.0
  0
VERTEX
  8
30-Orange
 10
163.0
 20
-105.0
 30
0.0
  0
VERTEX
  8
30-Orange
 10
192.0
 20
-96.0
 30
0.0
  0
VERTEX
  8
30-Orange
 10
197.0
 20
-63.0
 30
0.0
  0
VERTEX
  8
30-Orange
 10
193.0
 20
-53.0
 30
0.0
  0
SEQEND
  0
POLYLINE
  8
30-Orange
 66
1
 10
0.0
 20
0.0
 30
0.0
 70
8
  0
VERTEX
  8
30-Orange
 10
244.0
 20
-52.0
 30
0.0
  0
VERTEX
  8
30-Orange
 10
238.0
 20
-73.0
 30
0.0
  0
VERTEX
  8
30-Orange
 10
238.0
 20
-99.0
 30
0.0
  0
VERTEX
  8
30-Orange
 10
289.0
 20
-102.0
 30
0.0
  0
VERTEX
  8
30-Orange
 10
294.0
 20
-95.0
 30
0.0
  0
VERTEX
  8
30-Orange
 10
298.0
 20
-77.0
 30
0.0
  0
VERTEX
  8
30-Orange
 10
298.0
 20
-56.0
 30
0.0
  0
VERTEX
  8
30-Orange
 10
287.0
 20
-52.0
 30
0.0
  0
VERTEX
  8
30-Orange
 10
244.0
 20
-52.0
 30
0.0
  0
SEQEND
  0
POLYLINE
  8
30-Orange
 66
1
 10
0.0
 20
0.0
 30
0.0
 70
8
  0
VERTEX
  8
30-Orange
 10
395.0
 20
-65.0
 30
0.0
  0
VERTEX
  8
30-Orange
 10
388.0
 20
-109.0
 30
0.0
  0
VERTEX
  8
30-Orange
 10
513.0
 20
-111.0
 30
0.0
  0
VERTEX
  8
30-Orange
 10
528.0
 20
-124.0
 30
0.0
  0
VERTEX
  8
30-Orange
 10
545.0
 20
-167.0
 30
0.0
  0
VERTEX
  8
30-Orange
 10
554.0
 20
-309.0
 30
0.0
  0
VERTEX
  8
30-Orange
 10
569.0
 20
-307.0
 30
0.0
  0
VERTEX
  8
30-Orange
 10
606.0
 20
-261.0
 30
0.0
  0
VERTEX
  8
30-Orange
 10
576.0
 20
-80.0
 30
0.0
  0
VERTEX
  8
30-Orange
 10
504.0
 20
-48.0
 30
0.0
  0
VERTEX
  8
30-Orange
 10
395.0
 20
-65.0
 30
0.0
  0
SEQEND
  0
POLYLINE
  8
03-Green
 66
1
 10
0.0
 20
0.0
 30
0.0
 70
8
  0
VERTEX
  8
03-Green
 10
195.0
 20
-418.0
 30
0.0
  0
VERTEX
  8
03-Green
 10
181.0
 20
-417.0
 30
0.0
  0
VERTEX
  8
03-Green
 10
169.0
 20
-422.0
 30
0.0
  0
VERTEX
  8
03-Green
 10
163.0
 20
-428.0
 30
0.0
  0
VERTEX
  8
03-Green
 10
162.0
 20
-447.0
 30
0.0
  0
VERTEX
  8
03-Green
 10
157.0
 20
-454.0
 30
0.0
  0
VERTEX
  8
03-Green
 10
163.0
 20
-466.0
 30
0.0
  0
VERTEX
  8
03-Green
 10
180.0
 20
-471.0
 30
0.0
  0
VERTEX
  8
03-Green
 10
192.0
 20
-462.0
 30
0.0
  0
VERTEX
  8
03-Green
 10
205.0
 20
-446.0
 30
0.0
  0
VERTEX
  8
03-Green
 10
208.0
 20
-432.0
 30
0.0
  0
VERTEX
  8
03-Green
 10
195.0
 20
-418.0
 30
0.0
  0
SEQEND
  0
POLYLINE
  8
03-Green
 66
1
 10
0.0
 20
0.0
 30
0.0
 70
8
  0
VERTEX
  8
03-Green
 10
289.0
 20
-334.0
 30
0.0
  0
VERTEX
  8
03-Green
 10
290.0
 20
-333.0
 30
0.0
  0
VERTEX
  8
03-Green
 10
291.0
 20
-333.0
 30
0.0
  0
VERTEX
  8
03-Green
 10
292.0
 20
-334.0
 30
0.0
  0
VERTEX
  8
03-Green
 10
292.0
 20
-335.0
 30
0.0
  0
VERTEX
  8
03-Green
 10
291.0
 20
-336.0
 30
0.0
  0
VERTEX
  8
03-Green
 10
290.0
 20
-336.0
 30
0.0
  0
VERTEX
  8
03-Green
 10
289.0
 20
-335.0
 30
0.0
  0
VERTEX
  8
03-Green
 10
289.0
 20
-334.0
 30
0.0
  0
SEQEND
  0
POLYLINE
  8
03-Green
 66
1
 10
0.0
 20
0.0
 30
0.0
 70
8
  0
VERTEX
  8
03-Green
 10
270.0
 20
-304.0
 30
0.0
  0
VERTEX
  8
03-Green
 10
252.0
 20
-304.0
 30
0.0
  0
VERTEX
  8
03-Green
 10
214.0
 20
-356.0
 30
0.0
  0
VERTEX
  8
03-Green
 10
243.0
 20
-379.0
 30
0.0
  0
VERTEX
  8
03-Green
 10
258.0
 20
-381.0
 30
0.0
  0
VERTEX
  8
03-Green
 10
275.0
 20
-375.0
 30
0.0
  0
VERTEX
  8
03-Green
 10
284.0
 20
-360.0
 30
0.0
  0
VERTEX
  8
03-Green
 10
291.0
 20
-357.0
 30
0.0
  0
VERTEX
  8
03-Green
 10
290.0
 20
-350.0
 30
0.0
  0
VERTEX
  8
03-Green
 10
300.0
 20
-342.0
 30
0.0
  0
VERTEX
  8
03-Green
 10
300.0
 20
-331.0
 30
0.0
  0
VERTEX
  8
03-Green
 10
293.0
 20
-319.0
 30
0.0
  0
VERTEX
  8
03-Green
 10
270.0
 20
-304.0
 30
0.0
  0
SEQEND
  0
POLYLINE
  8
03-Green
 66
1
 10
0.0
 20
0.0
 30
0.0
 70
8
  0
VERTEX
  8
03-Green
 10
316.0
 20
-126.0
 30
0.0
  0
VERTEX
  8
03-Green
 10
317.0
 20
-125.0
 30
0.0
  0
VERTEX
  8
03-Green
 10
318.0
 20
-125.0
 30
0.0
  0
VERTEX
  8
03-Green
 10
319.0
 20
-124.0
 30
0.0
  0
VERTEX
  8
03-Green
 10
320.0
 20
-124.0
 30
0.0
  0
VERTEX
  8
03-Green
 10
322.0
 20
-126.0
 30
0.0
  0
VERTEX
  8
03-Green
 10
322.0
 20
-127.0
 30
0.0
  0
VERTEX
  8
03-Green
 10
321.0
 20
-128.0
 30
0.0
  0
VERTEX
  8
03-Green
 10
318.0
 20
-128.0
 30
0.0
  0
VERTEX
  8
03-Green
 10
316.0
 20
-126.0
 30
0.0
  0
SEQEND
  0
POLYLINE
  8
03-Green
 66
1
 10
0.0
 20
0.0
 30
0.0
 70
8
  0
VERTEX
  8
03-Green
 10
320.0
 20
-124.0
 30
0.0
  0
VERTEX
  8
03-Green
 10
321.0
 20
-123.0
 30
0.0
  0
VERTEX
  8
03-Green
 10
322.0
 20
-124.0
 30
0.0
  0
VERTEX
  8
03-Green
 10
321.0
 20
-125.0
 30
0.0
  0
VERTEX
  8
03-Green
 10
320.0
 20
-124.0
 30
0.0
  0
SEQEND
  0
POLYLINE
  8
03-Green
 66
1
 10
0.0
 20
0.0
 30
0.0
 70
8
  0
VERTEX
  8
03-Green
 10
322.0
 20
-122.0
 30
0.0
  0
VERTEX
  8
03-Green
 10
323.0
 20
-121.0
 30
0.0
  0
VERTEX
  8
03-Green
 10
324.0
 20
-122.0
 30
0.0
  0
VERTEX
  8
03-Green
 10
323.0
 20
-123.0
 30
0.0
  0
VERTEX
  8
03-Green
 10
322.0
 20
-122.0
 30
0.0
  0
SEQEND
  0
POLYLINE
  8
03-Green
 66
1
 10
0.0
 20
0.0
 30
0.0
 70
8
  0
VERTEX
  8
03-Green
 10
327.0
 20
-125.0
 30
0.0
  0
VERTEX
  8
03-Green
 10
310.0
 20
-112.0
 30
0.0
  0
VERTEX
  8
03-Green
 10
247.0
 20
-102.0
 30
0.0
  0
VERTEX
  8
03-Green
 10
206.0
 20
-109.0
 30
0.0
  0
VERTEX
  8
03-Green
 10
175.0
 20
-126.0
 30
0.0
  0
VERTEX
  8
03-Green
 10
154.0
 20
-170.0
 30
0.0
  0
VERTEX
  8
03-Green
 10
155.0
 20
-188.0
 30
0.0
  0
VERTEX
  8
03-Green
 10
165.0
 20
-195.0
 30
0.0
  0
VERTEX
  8
03-Green
 10
223.0
 20
-195.0
 30
0.0
  0
VERTEX
  8
03-Green
 10
286.0
 20
-187.0
 30
0.0
  0
VERTEX
  8
03-Green
 10
314.0
 20
-165.0
 30
0.0
  0
VERTEX
  8
03-Green
 10
329.0
 20
-137.0
 30
0.0
  0
VERTEX
  8
03-Green
 10
327.0
 20
-125.0
 30
0.0
  0
SEQEND
  0
POLYLINE
  8
06-Magenta
 66
1
 10
0.0
 20
0.0
 30
0.0
 70
8
  0
VERTEX
  8
06-Magenta
 10
388.0
 20
-266.0
 30
0.0
  0
VERTEX
  8
06-Magenta
 10
371.0
 20
-290.0
 30
0.0
  0
VERTEX
  8
06-Magenta
 10
373.0
 20
-355.0
 30
0.0
  0
VERTEX
  8
06-Magenta
 10
351.0
 20
-370.0
 30
0.0
  0
VERTEX
  8
06-Magenta
 10
345.0
 20
-420.0
 30
0.0
  0
VERTEX
  8
06-Magenta
 10
257.0
 20
-420.0
 30
0.0
  0
VERTEX
  8
06-Magenta
 10
250.0
 20
-463.0
 30
0.0
  0
VERTEX
  8
06-Magenta
 10
441.0
 20
-511.0
 30
0.0
  0
VERTEX
  8
06-Magenta
 10
471.0
 20
-473.0
 30
0.0
  0
VERTEX
  8
06-Magenta
 10
486.0
 20
-384.0
 30
0.0
  0
VERTEX
  8
06-Magenta
 10
463.0
 20
-362.0
 30
0.0
  0
VERTEX
  8
06-Magenta
 10
421.0
 20
-357.0
 30
0.0
  0
VERTEX
  8
06-Magenta
 10
414.0
 20
-282.0
 30
0.0
  0
VERTEX
  8
06-Magenta
 10
388.0
 20
-266.0
 30
0.0
  0
SEQEND
  0
ENDSEC
  0
EOF
