  0
SECTION
  2
HEADER
  9
$ACADVER
  1
AC1009
  9
$INSBASE
 10
0.0
 20
0.0
 30
0.0
  9
$EXTMIN
 10
0.0
 20
0.0
 30
0.0
  9
$EXTMAX
 10
100.0
 20
100.0
 30
0.0
  9
$UNITMODE
 70
0
  9
$AUNITS
 70
0
  9
$ANGBASE
 50
0.0
  9
$ANGDIR
 70
0
  0
ENDSEC
  0
SECTION
  2
TABLES
  0
TABLE
  2
LTYPE
 70
19
  0
LTYPE
  2
CONTINUOUS
 70
0
  3
Solid
 72
65
 73
0
 40
0.0
  0
LTYPE
  2
CENTER
 70
0
  3
Center ____ _ ____ _ ____ _ ____ _ ____ _ ____
 72
65
 73
4
 40
2.0
 49
1.25
 49
-0.25
 49
0.25
 49
-0.25
  0
LTYPE
  2
CENTERX2
 70
0
  3
Center (2x) ________  __  ________  __  ________
 72
65
 73
4
 40
3.5
 49
2.5
 49
-0.25
 49
0.5
 49
-0.25
  0
LTYPE
  2
CENTER2
 70
0
  3
Center (.5x) ____ _ ____ _ ____ _ ____ _ ____
 72
65
 73
4
 40
1.0
 49
0.625
 49
-0.125
 49
0.125
 49
-0.125
  0
LTYPE
  2
DASHED
 70
0
  3
Dashed __ __ __ __ __ __ __ __ __ __ __ __ __ _
 72
65
 73
2
 40
0.6
 49
0.5
 49
-0.1
  0
LTYPE
  2
DASHEDX2
 70
0
  3
Dashed (2x) ____  ____  ____  ____  ____  ____
 72
65
 73
2
 40
1.2
 49
1.0
 49
-0.2
  0
LTYPE
  2
DASHED2
 70
0
  3
Dashed (.5x) _ _ _ _ _ _ _ _ _ _ _ _ _ _
 72
65
 73
2
 40
0.3
 49
0.25
 49
-0.05
  0
LTYPE
  2
PHANTOM
 70
0
  3
Phantom ______  __  __  ______  __  __  ______
 72
65
 73
6
 40
2.5
 49
1.25
 49
-0.25
 49
0.25
 49
-0.25
 49
0.25
 49
-0.25
  0
LTYPE
  2
PHANTOMX2
 70
0
  3
Phantom (2x)____________    ____    ____    ____________
 72
65
 73
6
 40
4.25
 49
2.5
 49
-0.25
 49
0.5
 49
-0.25
 49
0.5
 49
-0.25
  0
LTYPE
  2
PHANTOM2
 70
0
  3
Phantom (.5x) ___ _ _ ___ _ _ ___ _ _ ___ _ _ ___
 72
65
 73
6
 40
1.25
 49
0.625
 49
-0.125
 49
0.125
 49
-0.125
 49
0.125
 49
-0.125
  0
LTYPE
  2
DASHDOT
 70
0
  3
Dash dot __ . __ . __ . __ . __ . __ . __ . __
 72
65
 73
4
 40
1.4
 49
1.0
 49
-0.2
 49
0.0
 49
-0.2
  0
LTYPE
  2
DASHDOTX2
 70
0
  3
Dash dot (2x) ____  .  ____  .  ____  .  ____
 72
65
 73
4
 40
2.4
 49
2.0
 49
-0.2
 49
0.0
 49
-0.2
  0
LTYPE
  2
DASHDOT2
 70
0
  3
Dash dot (.5x) _ . _ . _ . _ . _ . _ . _ . _
 72
65
 73
4
 40
0.7
 49
0.5
 49
-0.1
 49
0.0
 49
-0.1
  0
LTYPE
  2
DOT
 70
0
  3
Dot .  .  .  .  .  .  .  .  .  .  .  .  .  .  .  .
 72
65
 73
2
 40
0.2
 49
0.0
 49
-0.2
  0
LTYPE
  2
DOTX2
 70
0
  3
Dot (2x) .    .    .    .    .    .    .    . 
 72
65
 73
2
 40
0.4
 49
0.0
 49
-0.4
  0
LTYPE
  2
DOT2
 70
0
  3
Dot (.5) . . . . . . . . . . . . . . . . . . . 
 72
65
 73
2
 40
0.1
 49
0.0
 49
-0.1
  0
LTYPE
  2
DIVIDE
 70
0
  3
Divide __ . . __ . . __ . . __ . . __ . . __
 72
65
 73
6
 40
1.6
 49
1.0
 49
-0.2
 49
0.0
 49
-0.2
 49
0.0
 49
-0.2
  0
LTYPE
  2
DIVIDEX2
 70
0
  3
Divide (2x) ____  . .  ____  . .  ____  . .  ____
 72
65
 73
6
 40
2.6
 49
2.0
 49
-0.2
 49
0.0
 49
-0.2
 49
0.0
 49
-0.2
  0
LTYPE
  2
DIVIDE2
 70
0
  3
Divide(.5x) _ . _ . _ . _ . _ . _ . _ . _
 72
65
 73
6
 40
0.8
 49
0.5
 49
-0.1
 49
0.0
 49
-0.1
 49
0.0
 49
-0.1
  0
ENDTAB
  0
TABLE
  2
LAYER
 70
12
  0
LAYER
  2
DIMENSIONS
 70
0
 62
1
  6
CONTINUOUS
  0
LAYER
  2
TABLEBACKGROUND
 70
0
 62
1
  6
CONTINUOUS
  0
LAYER
  2
TABLECONTENT
 70
0
 62
1
  6
CONTINUOUS
  0
LAYER
  2
TABLEGRID
 70
0
 62
1
  6
CONTINUOUS
  0
LAYER
  2
VIEWPORTS
 70
0
 62
7
  6
CONTINUOUS
  0
LAYER
  2
01-Red
 70
0
 62
1
  6
CONTINUOUS
  0
LAYER
  2
02-Yellow
 70
0
 62
2
  6
CONTINUOUS
  0
LAYER
  2
03-Green
 70
0
 62
3
  6
CONTINUOUS
  0
LAYER
  2
04-Cyan
 70
0
 62
4
  6
CONTINUOUS
  0
LAYER
  2
05-Blue
 70
0
 62
5
  6
CONTINUOUS
  0
LAYER
  2
06-Magenta
 70
0
 62
6
  6
CONTINUOUS
  0
LAYER
  2
30-Orange
 70
0
 62
30
  6
CONTINUOUS
  0
ENDTAB
  0
TABLE
  2
STYLE
 70
12
  0
STYLE
  2
STANDARD
 70
0
 40
0.0
 41
1.0
 42
1.0
 50
0.0
 71
0
  3
arial.ttf
  4

  0
STYLE
  2
ARIAL
 70
0
 40
0.0
 41
1.0
 42
1.0
 50
0.0
 71
0
  3
arial.ttf
  4

  0
STYLE
  2
ARIAL_BOLD
 70
0
 40
0.0
 41
1.0
 42
1.0
 50
0.0
 71
0
  3
arialbd.ttf
  4

  0
STYLE
  2
ARIAL_ITALIC
 70
0
 40
0.0
 41
1.0
 42
1.0
 50
0.0
 71
0
  3
ariali.ttf
  4

  0
STYLE
  2
ARIAL_BOLD_ITALIC
 70
0
 40
0.0
 41
1.0
 42
1.0
 50
0.0
 71
0
  3
arialbi.ttf
  4

  0
STYLE
  2
ARIAL_BLACK
 70
0
 40
0.0
 41
1.0
 42
1.0
 50
0.0
 71
0
  3
ariblk.ttf
  4

  0
STYLE
  2
ISOCPEUR
 70
0
 40
0.0
 41
1.0
 42
1.0
 50
0.0
 71
0
  3
isocpeur.ttf
  4

  0
STYLE
  2
ISOCPEUR_ITALIC
 70
0
 40
0.0
 41
1.0
 42
1.0
 50
0.0
 71
0
  3
isocpeui.ttf
  4

  0
STYLE
  2
TIMES
 70
0
 40
0.0
 41
1.0
 42
1.0
 50
0.0
 71
0
  3
times.ttf
  4

  0
STYLE
  2
TIMES_BOLD
 70
0
 40
0.0
 41
1.0
 42
1.0
 50
0.0
 71
0
  3
timesbd.ttf
  4

  0
STYLE
  2
TIMES_ITALIC
 70
0
 40
0.0
 41
1.0
 42
1.0
 50
0.0
 71
0
  3
timesi.ttf
  4

  0
STYLE
  2
TIMES_BOLD_ITALIC
 70
0
 40
0.0
 41
1.0
 42
1.0
 50
0.0
 71
0
  3
timesbi.ttf
  4

  0
ENDTAB
  0
TABLE
  2
VIEW
 70
0
  0
ENDTAB
  0
TABLE
  2
APPID
 70
1
  0
APPID
  2
DXFWRITE
 70
0
  0
ENDTAB
  0
TABLE
  2
VPORT
 70
0
  0
ENDTAB
  0
TABLE
  2
UCS
 70
0
  0
ENDTAB
  0
ENDSEC
  0
SECTION
  2
BLOCKS
  0
BLOCK
  8
0
  2
lamp
  3
lamp
 70
0
 10
0.0
 20
0.0
 30
0.0
  0
POLYLINE
  8
30-Orange
 66
1
 10
0.0
 20
0.0
 30
0.0
 70
8
  0
VERTEX
  8
30-Orange
 10
0.0
 20
0.0
 30
0.0
  0
VERTEX
  8
30-Orange
 10
0.0
 20
0.0
 30
25.0
  0
SEQEND
  0
POLYLINE
  8
30-Orange
 66
1
 10
0.0
 20
0.0
 30
0.0
 70
8
  0
VERTEX
  8
30-Orange
 10
-10.0
 20
10.0
 30
25.0
  0
VERTEX
  8
30-Orange
 10
-10.0
 20
-10.0
 30
25.0
  0
VERTEX
  8
30-Orange
 10
10.0
 20
-10.0
 30
25.0
  0
VERTEX
  8
30-Orange
 10
10.0
 20
10.0
 30
25.0
  0
VERTEX
  8
30-Orange
 10
-10.0
 20
10.0
 30
25.0
  0
SEQEND
  0
POLYLINE
  8
30-Orange
 66
1
 10
0.0
 20
0.0
 30
0.0
 70
8
  0
VERTEX
  8
30-Orange
 10
-5.0
 20
5.0
 30
50.0
  0
VERTEX
  8
30-Orange
 10
-5.0
 20
-5.0
 30
50.0
  0
VERTEX
  8
30-Orange
 10
5.0
 20
-5.0
 30
50.0
  0
VERTEX
  8
30-Orange
 10
5.0
 20
5.0
 30
50.0
  0
VERTEX
  8
30-Orange
 10
-5.0
 20
5.0
 30
50.0
  0
SEQEND
  0
POLYLINE
  8
30-Orange
 66
1
 10
0.0
 20
0.0
 30
0.0
 70
8
  0
VERTEX
  8
30-Orange
 10
-5.0
 20
-5.0
 30
50.0
  0
VERTEX
  8
30-Orange
 10
-10.0
 20
-10.0
 30
25.0
  0
SEQEND
  0
POLYLINE
  8
30-Orange
 66
1
 10
0.0
 20
0.0
 30
0.0
 70
8
  0
VERTEX
  8
30-Orange
 10
-5.0
 20
5.0
 30
50.0
  0
VERTEX
  8
30-Orange
 10
-10.0
 20
10.0
 30
25.0
  0
SEQEND
  0
POLYLINE
  8
30-Orange
 66
1
 10
0.0
 20
0.0
 30
0.0
 70
8
  0
VERTEX
  8
30-Orange
 10
5.0
 20
-5.0
 30
50.0
  0
VERTEX
  8
30-Orange
 10
10.0
 20
-10.0
 30
25.0
  0
SEQEND
  0
POLYLINE
  8
30-Orange
 66
1
 10
0.0
 20
0.0
 30
0.0
 70
8
  0
VERTEX
  8
30-Orange
 10
5.0
 20
5.0
 30
50.0
  0
VERTEX
  8
30-Orange
 10
10.0
 20
10.0
 30
25.0
  0
SEQEND
  0
ENDBLK
  0
BLOCK
  8
0
  2
tree
  3
tree
 70
0
 10
0.0
 20
0.0
 30
0.0
  0
POLYLINE
  8
03-Green
 66
1
 10
0.0
 20
0.0
 30
0.0
 70
8
  0
VERTEX
  8
03-Green
 10
0.0
 20
0.0
 30
0.0
  0
VERTEX
  8
03-Green
 10
0.0
 20
0.0
 30
50.0
  0
SEQEND
  0
CIRCLE
  8
03-Green
 10
0.0
 20
0.0
 30
26.6
 40
8.9
  0
CIRCLE
  8
03-Green
 10
0.0
 20
0.0
 30
73.35
 40
8.9
  0
CIRCLE
  8
03-Green
 10
0.0
 20
0.0
 30
50.0
 40
25.0
  0
CIRCLE
  8
03-Green
 10
0.0
 20
0.0
 30
36.19
 40
20.8
  0
CIRCLE
  8
03-Green
 10
0.0
 20
0.0
 30
63.8
 40
20.8
  0
ENDBLK
  0
ENDSEC
  0
SECTION
  2
ENTITIES
  0
VIEWPORT
  8
VIEWPORTS
 67
1
 10
0.0
 20
0.0
 30
0.0
 40
1.0
 41
1.0
 68
1
 69
1
1001
ACAD
1000
MVIEW
1002
{
1070
16
1010
0.0
1020
0.0
1030
0.0
1010
0.0
1020
0.0
1030
0.0
1040
0.0
1040
1.0
1040
0.0
1040
0.0
1040
50.0
1040
0.0
1040
0.0
1070
0
1070
100
1070
1
1070
3
1070
0
1070
0
1070
0
1070
0
1040
0.0
1040
0.0
1040
0.0
1040
0.1
1040
0.1
1040
0.1
1040
0.1
1070
0
1002
{
1002
}
1002
}
  0
POLYLINE
  8
04-Cyan
 66
1
 10
0.0
 20
0.0
 30
0.0
 70
8
  0
VERTEX
  8
04-Cyan
 10
148.0
 20
-568.0
 30
50.0
  0
VERTEX
  8
04-Cyan
 10
148.0
 20
-537.0
 30
50.0
  0
SEQEND
  0
POLYLINE
  8
04-Cyan
 66
1
 10
0.0
 20
0.0
 30
0.0
 70
8
  0
VERTEX
  8
04-Cyan
 10
362.0
 20
-734.0
 30
50.0
  0
VERTEX
  8
04-Cyan
 10
367.0
 20
-734.0
 30
50.0
  0
SEQEND
  0
POLYLINE
  8
04-Cyan
 66
1
 10
0.0
 20
0.0
 30
0.0
 70
8
  0
VERTEX
  8
04-Cyan
 10
154.0
 20
-346.0
 30
50.0
  0
VERTEX
  8
04-Cyan
 10
154.0
 20
-329.0
 30
50.0
  0
SEQEND
  0
POLYLINE
  8
04-Cyan
 66
1
 10
0.0
 20
0.0
 30
0.0
 70
8
  0
VERTEX
  8
04-Cyan
 10
144.0
 20
-641.0
 30
50.0
  0
VERTEX
  8
04-Cyan
 10
144.0
 20
-628.0
 30
50.0
  0
SEQEND
  0
POLYLINE
  8
04-Cyan
 66
1
 10
0.0
 20
0.0
 30
0.0
 70
8
  0
VERTEX
  8
04-Cyan
 10
145.0
 20
-627.0
 30
50.0
  0
VERTEX
  8
04-Cyan
 10
145.0
 20
-601.0
 30
50.0
  0
SEQEND
  0
POLYLINE
  8
04-Cyan
 66
1
 10
0.0
 20
0.0
 30
0.0
 70
8
  0
VERTEX
  8
04-Cyan
 10
306.0
 20
-376.0
 30
50.0
  0
VERTEX
  8
04-Cyan
 10
334.0
 20
-376.0
 30
50.0
  0
SEQEND
  0
POLYLINE
  8
04-Cyan
 66
1
 10
0.0
 20
0.0
 30
0.0
 70
8
  0
VERTEX
  8
04-Cyan
 10
151.0
 20
-448.0
 30
50.0
  0
VERTEX
  8
04-Cyan
 10
151.0
 20
-422.0
 30
50.0
  0
SEQEND
  0
POLYLINE
  8
04-Cyan
 66
1
 10
0.0
 20
0.0
 30
0.0
 70
8
  0
VERTEX
  8
04-Cyan
 10
467.0
 20
-319.0
 30
50.0
  0
VERTEX
  8
04-Cyan
 10
470.0
 20
-317.0
 30
50.0
  0
SEQEND
  0
POLYLINE
  8
04-Cyan
 66
1
 10
0.0
 20
0.0
 30
0.0
 70
8
  0
VERTEX
  8
04-Cyan
 10
149.0
 20
-499.0
 30
50.0
  0
VERTEX
  8
04-Cyan
 10
149.0
 20
-480.0
 30
50.0
  0
SEQEND
  0
POLYLINE
  8
04-Cyan
 66
1
 10
0.0
 20
0.0
 30
0.0
 70
8
  0
VERTEX
  8
04-Cyan
 10
193.0
 20
-373.0
 30
50.0
  0
VERTEX
  8
04-Cyan
 10
215.0
 20
-373.0
 30
50.0
  0
SEQEND
  0
POLYLINE
  8
04-Cyan
 66
1
 10
0.0
 20
0.0
 30
0.0
 70
8
  0
VERTEX
  8
04-Cyan
 10
179.0
 20
-714.0
 30
50.0
  0
VERTEX
  8
04-Cyan
 10
183.0
 20
-714.0
 30
50.0
  0
SEQEND
  0
POLYLINE
  8
04-Cyan
 66
1
 10
0.0
 20
0.0
 30
0.0
 70
8
  0
VERTEX
  8
04-Cyan
 10
216.0
 20
-374.0
 30
50.0
  0
VERTEX
  8
04-Cyan
 10
250.0
 20
-374.0
 30
50.0
  0
SEQEND
  0
POLYLINE
  8
04-Cyan
 66
1
 10
0.0
 20
0.0
 30
0.0
 70
8
  0
VERTEX
  8
04-Cyan
 10
196.0
 20
-717.0
 30
50.0
  0
VERTEX
  8
04-Cyan
 10
213.0
 20
-718.0
 30
50.0
  0
SEQEND
  0
POLYLINE
  8
04-Cyan
 66
1
 10
0.0
 20
0.0
 30
0.0
 70
8
  0
VERTEX
  8
04-Cyan
 10
494.0
 20
-323.0
 30
50.0
  0
VERTEX
  8
04-Cyan
 10
496.0
 20
-325.0
 30
50.0
  0
SEQEND
  0
POLYLINE
  8
04-Cyan
 66
1
 10
0.0
 20
0.0
 30
0.0
 70
8
  0
VERTEX
  8
04-Cyan
 10
265.0
 20
-376.0
 30
50.0
  0
VERTEX
  8
04-Cyan
 10
270.0
 20
-376.0
 30
50.0
  0
SEQEND
  0
POLYLINE
  8
04-Cyan
 66
1
 10
0.0
 20
0.0
 30
0.0
 70
8
  0
VERTEX
  8
04-Cyan
 10
366.0
 20
-791.0
 30
50.0
  0
VERTEX
  8
04-Cyan
 10
366.0
 20
-790.0
 30
50.0
  0
SEQEND
  0
POLYLINE
  8
04-Cyan
 66
1
 10
0.0
 20
0.0
 30
0.0
 70
8
  0
VERTEX
  8
04-Cyan
 10
475.0
 20
-294.0
 30
50.0
  0
VERTEX
  8
04-Cyan
 10
476.0
 20
-295.0
 30
50.0
  0
SEQEND
  0
POLYLINE
  8
04-Cyan
 66
1
 10
0.0
 20
0.0
 30
0.0
 70
8
  0
VERTEX
  8
04-Cyan
 10
436.0
 20
-338.0
 30
50.0
  0
VERTEX
  8
04-Cyan
 10
440.0
 20
-335.0
 30
50.0
  0
SEQEND
  0
POLYLINE
  8
04-Cyan
 66
1
 10
0.0
 20
0.0
 30
0.0
 70
8
  0
VERTEX
  8
04-Cyan
 10
368.0
 20
-364.0
 30
50.0
  0
VERTEX
  8
04-Cyan
 10
368.0
 20
-347.0
 30
50.0
  0
SEQEND
  0
POLYLINE
  8
04-Cyan
 66
1
 10
0.0
 20
0.0
 30
0.0
 70
8
  0
VERTEX
  8
04-Cyan
 10
369.0
 20
-338.0
 30
50.0
  0
VERTEX
  8
04-Cyan
 10
369.0
 20
-346.0
 30
50.0
  0
SEQEND
  0
POLYLINE
  8
04-Cyan
 66
1
 10
0.0
 20
0.0
 30
0.0
 70
8
  0
VERTEX
  8
04-Cyan
 10
220.0
 20
-720.0
 30
50.0
  0
VERTEX
  8
04-Cyan
 10
229.0
 20
-720.0
 30
50.0
  0
SEQEND
  0
POLYLINE
  8
04-Cyan
 66
1
 10
0.0
 20
0.0
 30
0.0
 70
8
  0
VERTEX
  8
04-Cyan
 10
439.0
 20
-233.0
 30
50.0
  0
VERTEX
  8
04-Cyan
 10
441.0
 20
-235.0
 30
50.0
  0
SEQEND
  0
POLYLINE
  8
04-Cyan
 66
1
 10
0.0
 20
0.0
 30
0.0
 70
8
  0
VERTEX
  8
04-Cyan
 10
474.0
 20
-292.0
 30
50.0
  0
VERTEX
  8
04-Cyan
 10
475.0
 20
-293.0
 30
50.0
  0
SEQEND
  0
POLYLINE
  8
04-Cyan
 66
1
 10
0.0
 20
0.0
 30
0.0
 70
8
  0
VERTEX
  8
04-Cyan
 10
281.0
 20
-725.0
 30
50.0
  0
VERTEX
  8
04-Cyan
 10
286.0
 20
-725.0
 30
50.0
  0
SEQEND
  0
POLYLINE
  8
04-Cyan
 66
1
 10
0.0
 20
0.0
 30
0.0
 70
8
  0
VERTEX
  8
04-Cyan
 10
435.0
 20
-339.0
 30
50.0
  0
VERTEX
  8
04-Cyan
 10
435.0
 20
-339.0
 30
50.0
  0
SEQEND
  0
POLYLINE
  8
04-Cyan
 66
1
 10
0.0
 20
0.0
 30
0.0
 70
8
  0
VERTEX
  8
04-Cyan
 10
214.0
 20
-718.0
 30
50.0
  0
VERTEX
  8
04-Cyan
 10
215.0
 20
-718.0
 30
50.0
  0
SEQEND
  0
POLYLINE
  8
04-Cyan
 66
1
 10
0.0
 20
0.0
 30
0.0
 70
8
  0
VERTEX
  8
04-Cyan
 10
398.0
 20
-359.0
 30
50.0
  0
VERTEX
  8
04-Cyan
 10
399.0
 20
-358.0
 30
50.0
  0
SEQEND
  0
POLYLINE
  8
04-Cyan
 66
1
 10
0.0
 20
0.0
 30
0.0
 70
8
  0
VERTEX
  8
04-Cyan
 10
150.0
 20
-458.0
 30
50.0
  0
VERTEX
  8
04-Cyan
 10
150.0
 20
-449.0
 30
50.0
  0
SEQEND
  0
POLYLINE
  8
04-Cyan
 66
1
 10
0.0
 20
0.0
 30
0.0
 70
8
  0
VERTEX
  8
04-Cyan
 10
147.0
 20
-571.0
 30
50.0
  0
VERTEX
  8
04-Cyan
 10
147.0
 20
-571.0
 30
50.0
  0
SEQEND
  0
POLYLINE
  8
04-Cyan
 66
1
 10
0.0
 20
0.0
 30
0.0
 70
8
  0
VERTEX
  8
04-Cyan
 10
259.0
 20
-723.0
 30
50.0
  0
VERTEX
  8
04-Cyan
 10
265.0
 20
-723.0
 30
50.0
  0
SEQEND
  0
POLYLINE
  8
04-Cyan
 66
1
 10
0.0
 20
0.0
 30
0.0
 70
8
  0
VERTEX
  8
04-Cyan
 10
142.0
 20
-663.0
 30
50.0
  0
VERTEX
  8
04-Cyan
 10
142.0
 20
-662.0
 30
50.0
  0
SEQEND
  0
POLYLINE
  8
04-Cyan
 66
1
 10
0.0
 20
0.0
 30
0.0
 70
8
  0
VERTEX
  8
04-Cyan
 10
152.0
 20
-352.0
 30
50.0
  0
VERTEX
  8
04-Cyan
 10
152.0
 20
-351.0
 30
50.0
  0
SEQEND
  0
POLYLINE
  8
04-Cyan
 66
1
 10
0.0
 20
0.0
 30
0.0
 70
8
  0
VERTEX
  8
04-Cyan
 10
142.0
 20
-713.0
 30
50.0
  0
VERTEX
  8
04-Cyan
 10
161.0
 20
-713.0
 30
50.0
  0
SEQEND
  0
POLYLINE
  8
04-Cyan
 66
1
 10
0.0
 20
0.0
 30
0.0
 70
8
  0
VERTEX
  8
04-Cyan
 10
420.0
 20
-196.0
 30
50.0
  0
VERTEX
  8
04-Cyan
 10
420.0
 20
-196.0
 30
50.0
  0
SEQEND
  0
POLYLINE
  8
04-Cyan
 66
1
 10
0.0
 20
0.0
 30
0.0
 70
8
  0
VERTEX
  8
04-Cyan
 10
385.0
 20
-367.0
 30
50.0
  0
VERTEX
  8
04-Cyan
 10
388.0
 20
-365.0
 30
50.0
  0
SEQEND
  0
POLYLINE
  8
04-Cyan
 66
1
 10
0.0
 20
0.0
 30
0.0
 70
8
  0
VERTEX
  8
04-Cyan
 10
442.0
 20
-334.0
 30
50.0
  0
VERTEX
  8
04-Cyan
 10
442.0
 20
-334.0
 30
50.0
  0
SEQEND
  0
POLYLINE
  8
04-Cyan
 66
1
 10
0.0
 20
0.0
 30
0.0
 70
8
  0
VERTEX
  8
04-Cyan
 10
140.0
 20
-688.0
 30
50.0
  0
VERTEX
  8
04-Cyan
 10
140.0
 20
-669.0
 30
50.0
  0
SEQEND
  0
POLYLINE
  8
04-Cyan
 66
1
 10
0.0
 20
0.0
 30
0.0
 70
8
  0
VERTEX
  8
04-Cyan
 10
407.0
 20
-355.0
 30
50.0
  0
VERTEX
  8
04-Cyan
 10
413.0
 20
-351.0
 30
50.0
  0
SEQEND
  0
POLYLINE
  8
04-Cyan
 66
1
 10
0.0
 20
0.0
 30
0.0
 70
8
  0
VERTEX
  8
04-Cyan
 10
461.0
 20
-267.0
 30
50.0
  0
VERTEX
  8
04-Cyan
 10
461.0
 20
-267.0
 30
50.0
  0
SEQEND
  0
POLYLINE
  8
04-Cyan
 66
1
 10
0.0
 20
0.0
 30
0.0
 70
8
  0
VERTEX
  8
04-Cyan
 10
437.0
 20
-230.0
 30
50.0
  0
VERTEX
  8
04-Cyan
 10
438.0
 20
-232.0
 30
50.0
  0
SEQEND
  0
POLYLINE
  8
04-Cyan
 66
1
 10
0.0
 20
0.0
 30
0.0
 70
8
  0
VERTEX
  8
04-Cyan
 10
467.0
 20
-280.0
 30
50.0
  0
VERTEX
  8
04-Cyan
 10
468.0
 20
-281.0
 30
50.0
  0
SEQEND
  0
POLYLINE
  8
04-Cyan
 66
1
 10
0.0
 20
0.0
 30
0.0
 70
8
  0
VERTEX
  8
04-Cyan
 10
454.0
 20
-255.0
 30
50.0
  0
VERTEX
  8
04-Cyan
 10
455.0
 20
-256.0
 30
50.0
  0
SEQEND
  0
POLYLINE
  8
04-Cyan
 66
1
 10
0.0
 20
0.0
 30
0.0
 70
8
  0
VERTEX
  8
04-Cyan
 10
232.0
 20
-721.0
 30
50.0
  0
VERTEX
  8
04-Cyan
 10
247.0
 20
-721.0
 30
50.0
  0
SEQEND
  0
POLYLINE
  8
04-Cyan
 66
1
 10
0.0
 20
0.0
 30
0.0
 70
8
  0
VERTEX
  8
04-Cyan
 10
431.0
 20
-220.0
 30
50.0
  0
VERTEX
  8
04-Cyan
 10
433.0
 20
-222.0
 30
50.0
  0
SEQEND
  0
POLYLINE
  8
04-Cyan
 66
1
 10
0.0
 20
0.0
 30
0.0
 70
8
  0
VERTEX
  8
04-Cyan
 10
299.0
 20
-728.0
 30
50.0
  0
VERTEX
  8
04-Cyan
 10
303.0
 20
-728.0
 30
50.0
  0
SEQEND
  0
POLYLINE
  8
04-Cyan
 66
1
 10
0.0
 20
0.0
 30
0.0
 70
8
  0
VERTEX
  8
04-Cyan
 10
149.0
 20
-521.0
 30
50.0
  0
VERTEX
  8
04-Cyan
 10
149.0
 20
-532.0
 30
50.0
  0
SEQEND
  0
POLYLINE
  8
04-Cyan
 66
1
 10
0.0
 20
0.0
 30
0.0
 70
8
  0
VERTEX
  8
04-Cyan
 10
469.0
 20
-283.0
 30
50.0
  0
VERTEX
  8
04-Cyan
 10
470.0
 20
-284.0
 30
50.0
  0
SEQEND
  0
POLYLINE
  8
04-Cyan
 66
1
 10
0.0
 20
0.0
 30
0.0
 70
8
  0
VERTEX
  8
04-Cyan
 10
271.0
 20
-376.0
 30
50.0
  0
VERTEX
  8
04-Cyan
 10
275.0
 20
-376.0
 30
50.0
  0
SEQEND
  0
POLYLINE
  8
04-Cyan
 66
1
 10
0.0
 20
0.0
 30
0.0
 70
8
  0
VERTEX
  8
04-Cyan
 10
367.0
 20
-373.0
 30
50.0
  0
VERTEX
  8
04-Cyan
 10
367.0
 20
-373.0
 30
50.0
  0
SEQEND
  0
POLYLINE
  8
04-Cyan
 66
1
 10
0.0
 20
0.0
 30
0.0
 70
8
  0
VERTEX
  8
04-Cyan
 10
335.0
 20
-733.0
 30
50.0
  0
VERTEX
  8
04-Cyan
 10
361.0
 20
-733.0
 30
50.0
  0
SEQEND
  0
POLYLINE
  8
04-Cyan
 66
1
 10
0.0
 20
0.0
 30
0.0
 70
8
  0
VERTEX
  8
04-Cyan
 10
179.0
 20
-373.0
 30
50.0
  0
VERTEX
  8
04-Cyan
 10
192.0
 20
-373.0
 30
50.0
  0
SEQEND
  0
POLYLINE
  8
04-Cyan
 66
1
 10
0.0
 20
0.0
 30
0.0
 70
8
  0
VERTEX
  8
04-Cyan
 10
420.0
 20
-197.0
 30
50.0
  0
VERTEX
  8
04-Cyan
 10
420.0
 20
-197.0
 30
50.0
  0
SEQEND
  0
POLYLINE
  8
04-Cyan
 66
1
 10
0.0
 20
0.0
 30
0.0
 70
8
  0
VERTEX
  8
04-Cyan
 10
449.0
 20
-246.0
 30
50.0
  0
VERTEX
  8
04-Cyan
 10
452.0
 20
-250.0
 30
50.0
  0
SEQEND
  0
POLYLINE
  8
04-Cyan
 66
1
 10
0.0
 20
0.0
 30
0.0
 70
8
  0
VERTEX
  8
04-Cyan
 10
290.0
 20
-376.0
 30
50.0
  0
VERTEX
  8
04-Cyan
 10
294.0
 20
-376.0
 30
50.0
  0
SEQEND
  0
POLYLINE
  8
04-Cyan
 66
1
 10
0.0
 20
0.0
 30
0.0
 70
8
  0
VERTEX
  8
04-Cyan
 10
372.0
 20
-753.0
 30
50.0
  0
VERTEX
  8
04-Cyan
 10
372.0
 20
-749.0
 30
50.0
  0
SEQEND
  0
POLYLINE
  8
04-Cyan
 66
1
 10
0.0
 20
0.0
 30
0.0
 70
8
  0
VERTEX
  8
04-Cyan
 10
152.0
 20
-417.0
 30
50.0
  0
VERTEX
  8
04-Cyan
 10
152.0
 20
-377.0
 30
50.0
  0
SEQEND
  0
POLYLINE
  8
04-Cyan
 66
1
 10
0.0
 20
0.0
 30
0.0
 70
8
  0
VERTEX
  8
04-Cyan
 10
483.0
 20
-309.0
 30
50.0
  0
VERTEX
  8
04-Cyan
 10
483.0
 20
-310.0
 30
50.0
  0
SEQEND
  0
POLYLINE
  8
04-Cyan
 66
1
 10
0.0
 20
0.0
 30
0.0
 70
8
  0
VERTEX
  8
04-Cyan
 10
357.0
 20
-377.0
 30
50.0
  0
VERTEX
  8
04-Cyan
 10
359.0
 20
-377.0
 30
50.0
  0
SEQEND
  0
POLYLINE
  8
04-Cyan
 66
1
 10
0.0
 20
0.0
 30
0.0
 70
8
  0
VERTEX
  8
04-Cyan
 10
425.0
 20
-345.0
 30
50.0
  0
VERTEX
  8
04-Cyan
 10
427.0
 20
-343.0
 30
50.0
  0
SEQEND
  0
POLYLINE
  8
04-Cyan
 66
1
 10
0.0
 20
0.0
 30
0.0
 70
8
  0
VERTEX
  8
04-Cyan
 10
168.0
 20
-373.0
 30
50.0
  0
VERTEX
  8
04-Cyan
 10
174.0
 20
-373.0
 30
50.0
  0
SEQEND
  0
POLYLINE
  8
04-Cyan
 66
1
 10
0.0
 20
0.0
 30
0.0
 70
8
  0
VERTEX
  8
04-Cyan
 10
455.0
 20
-326.0
 30
50.0
  0
VERTEX
  8
04-Cyan
 10
466.0
 20
-320.0
 30
50.0
  0
SEQEND
  0
POLYLINE
  8
04-Cyan
 66
1
 10
0.0
 20
0.0
 30
0.0
 70
8
  0
VERTEX
  8
04-Cyan
 10
464.0
 20
-276.0
 30
50.0
  0
VERTEX
  8
04-Cyan
 10
465.0
 20
-277.0
 30
50.0
  0
SEQEND
  0
POLYLINE
  8
04-Cyan
 66
1
 10
0.0
 20
0.0
 30
0.0
 70
8
  0
VERTEX
  8
04-Cyan
 10
149.0
 20
-514.0
 30
50.0
  0
VERTEX
  8
04-Cyan
 10
149.0
 20
-507.0
 30
50.0
  0
SEQEND
  0
POLYLINE
  8
04-Cyan
 66
1
 10
0.0
 20
0.0
 30
0.0
 70
8
  0
VERTEX
  8
04-Cyan
 10
368.0
 20
-784.0
 30
50.0
  0
VERTEX
  8
04-Cyan
 10
368.0
 20
-779.0
 30
50.0
  0
SEQEND
  0
POLYLINE
  8
04-Cyan
 66
1
 10
0.0
 20
0.0
 30
0.0
 70
8
  0
VERTEX
  8
04-Cyan
 10
153.0
 20
-350.0
 30
50.0
  0
VERTEX
  8
04-Cyan
 10
153.0
 20
-347.0
 30
50.0
  0
SEQEND
  0
POLYLINE
  8
04-Cyan
 66
1
 10
0.0
 20
0.0
 30
0.0
 70
8
  0
VERTEX
  8
04-Cyan
 10
253.0
 20
-722.0
 30
50.0
  0
VERTEX
  8
04-Cyan
 10
253.0
 20
-722.0
 30
50.0
  0
SEQEND
  0
POLYLINE
  8
04-Cyan
 66
1
 10
0.0
 20
0.0
 30
0.0
 70
8
  0
VERTEX
  8
04-Cyan
 10
150.0
 20
-473.0
 30
50.0
  0
VERTEX
  8
04-Cyan
 10
150.0
 20
-479.0
 30
50.0
  0
SEQEND
  0
POLYLINE
  8
04-Cyan
 66
1
 10
0.0
 20
0.0
 30
0.0
 70
8
  0
VERTEX
  8
04-Cyan
 10
482.0
 20
-305.0
 30
50.0
  0
VERTEX
  8
04-Cyan
 10
482.0
 20
-306.0
 30
50.0
  0
SEQEND
  0
POLYLINE
  8
04-Cyan
 66
1
 10
0.0
 20
0.0
 30
0.0
 70
8
  0
VERTEX
  8
04-Cyan
 10
428.0
 20
-187.0
 30
50.0
  0
VERTEX
  8
04-Cyan
 10
431.0
 20
-185.0
 30
50.0
  0
SEQEND
  0
POLYLINE
  8
04-Cyan
 66
1
 10
0.0
 20
0.0
 30
0.0
 70
8
  0
VERTEX
  8
04-Cyan
 10
371.0
 20
-370.0
 30
50.0
  0
VERTEX
  8
04-Cyan
 10
373.0
 20
-370.0
 30
50.0
  0
SEQEND
  0
POLYLINE
  8
04-Cyan
 66
1
 10
0.0
 20
0.0
 30
0.0
 70
8
  0
VERTEX
  8
04-Cyan
 10
443.0
 20
-238.0
 30
50.0
  0
VERTEX
  8
04-Cyan
 10
443.0
 20
-237.0
 30
50.0
  0
SEQEND
  0
POLYLINE
  8
04-Cyan
 66
1
 10
0.0
 20
0.0
 30
0.0
 70
8
  0
VERTEX
  8
04-Cyan
 10
139.0
 20
-705.0
 30
50.0
  0
VERTEX
  8
04-Cyan
 10
139.0
 20
-697.0
 30
50.0
  0
SEQEND
  0
POLYLINE
  8
04-Cyan
 66
1
 10
0.0
 20
0.0
 30
0.0
 70
8
  0
VERTEX
  8
04-Cyan
 10
150.0
 20
-470.0
 30
50.0
  0
VERTEX
  8
04-Cyan
 10
150.0
 20
-468.0
 30
50.0
  0
SEQEND
  0
POLYLINE
  8
04-Cyan
 66
1
 10
0.0
 20
0.0
 30
0.0
 70
8
  0
VERTEX
  8
04-Cyan
 10
147.0
 20
-577.0
 30
50.0
  0
VERTEX
  8
04-Cyan
 10
147.0
 20
-572.0
 30
50.0
  0
SEQEND
  0
POLYLINE
  8
04-Cyan
 66
1
 10
0.0
 20
0.0
 30
0.0
 70
8
  0
VERTEX
  8
04-Cyan
 10
143.0
 20
-650.0
 30
50.0
  0
VERTEX
  8
04-Cyan
 10
143.0
 20
-652.0
 30
50.0
  0
SEQEND
  0
POLYLINE
  8
04-Cyan
 66
1
 10
0.0
 20
0.0
 30
0.0
 70
8
  0
VERTEX
  8
04-Cyan
 10
472.0
 20
-316.0
 30
50.0
  0
VERTEX
  8
04-Cyan
 10
472.0
 20
-316.0
 30
50.0
  0
SEQEND
  0
POLYLINE
  8
04-Cyan
 66
1
 10
0.0
 20
0.0
 30
0.0
 70
8
  0
VERTEX
  8
04-Cyan
 10
452.0
 20
-251.0
 30
50.0
  0
VERTEX
  8
04-Cyan
 10
453.0
 20
-252.0
 30
50.0
  0
SEQEND
  0
POLYLINE
  8
04-Cyan
 66
1
 10
0.0
 20
0.0
 30
0.0
 70
8
  0
VERTEX
  8
04-Cyan
 10
379.0
 20
-368.0
 30
50.0
  0
VERTEX
  8
04-Cyan
 10
383.0
 20
-368.0
 30
50.0
  0
SEQEND
  0
POLYLINE
  8
04-Cyan
 66
1
 10
0.0
 20
0.0
 30
0.0
 70
8
  0
VERTEX
  8
04-Cyan
 10
153.0
 20
-353.0
 30
50.0
  0
VERTEX
  8
04-Cyan
 10
153.0
 20
-353.0
 30
50.0
  0
SEQEND
  0
POLYLINE
  8
04-Cyan
 66
1
 10
0.0
 20
0.0
 30
0.0
 70
8
  0
VERTEX
  8
04-Cyan
 10
457.0
 20
-259.0
 30
50.0
  0
VERTEX
  8
04-Cyan
 10
457.0
 20
-259.0
 30
50.0
  0
SEQEND
  0
POLYLINE
  8
04-Cyan
 66
1
 10
0.0
 20
0.0
 30
0.0
 70
8
  0
VERTEX
  8
04-Cyan
 10
497.0
 20
-326.0
 30
50.0
  0
VERTEX
  8
04-Cyan
 10
503.0
 20
-335.0
 30
50.0
  0
SEQEND
  0
POLYLINE
  8
04-Cyan
 66
1
 10
0.0
 20
0.0
 30
0.0
 70
8
  0
VERTEX
  8
04-Cyan
 10
188.0
 20
-716.0
 30
50.0
  0
VERTEX
  8
04-Cyan
 10
192.0
 20
-716.0
 30
50.0
  0
SEQEND
  0
POLYLINE
  8
04-Cyan
 66
1
 10
0.0
 20
0.0
 30
0.0
 70
8
  0
VERTEX
  8
04-Cyan
 10
253.0
 20
-375.0
 30
50.0
  0
VERTEX
  8
04-Cyan
 10
264.0
 20
-375.0
 30
50.0
  0
SEQEND
  0
POLYLINE
  8
04-Cyan
 66
1
 10
0.0
 20
0.0
 30
0.0
 70
8
  0
VERTEX
  8
04-Cyan
 10
154.0
 20
-370.0
 30
50.0
  0
VERTEX
  8
04-Cyan
 10
154.0
 20
-373.0
 30
50.0
  0
SEQEND
  0
POLYLINE
  8
04-Cyan
 66
1
 10
0.0
 20
0.0
 30
0.0
 70
8
  0
VERTEX
  8
04-Cyan
 10
493.0
 20
-322.0
 30
50.0
  0
VERTEX
  8
04-Cyan
 10
493.0
 20
-322.0
 30
50.0
  0
SEQEND
  0
POLYLINE
  8
04-Cyan
 66
1
 10
0.0
 20
0.0
 30
0.0
 70
8
  0
VERTEX
  8
04-Cyan
 10
164.0
 20
-372.0
 30
50.0
  0
VERTEX
  8
04-Cyan
 10
166.0
 20
-372.0
 30
50.0
  0
SEQEND
  0
POLYLINE
  8
04-Cyan
 66
1
 10
0.0
 20
0.0
 30
0.0
 70
8
  0
VERTEX
  8
04-Cyan
 10
491.0
 20
-318.0
 30
50.0
  0
VERTEX
  8
04-Cyan
 10
492.0
 20
-320.0
 30
50.0
  0
SEQEND
  0
POLYLINE
  8
04-Cyan
 66
1
 10
0.0
 20
0.0
 30
0.0
 70
8
  0
VERTEX
  8
04-Cyan
 10
369.0
 20
-777.0
 30
50.0
  0
VERTEX
  8
04-Cyan
 10
369.0
 20
-777.0
 30
50.0
  0
SEQEND
  0
POLYLINE
  8
04-Cyan
 66
1
 10
0.0
 20
0.0
 30
0.0
 70
8
  0
VERTEX
  8
04-Cyan
 10
293.0
 20
-727.0
 30
50.0
  0
VERTEX
  8
04-Cyan
 10
295.0
 20
-727.0
 30
50.0
  0
SEQEND
  0
POLYLINE
  8
04-Cyan
 66
1
 10
0.0
 20
0.0
 30
0.0
 70
8
  0
VERTEX
  8
04-Cyan
 10
349.0
 20
-377.0
 30
50.0
  0
VERTEX
  8
04-Cyan
 10
356.0
 20
-377.0
 30
50.0
  0
SEQEND
  0
POLYLINE
  8
04-Cyan
 66
1
 10
0.0
 20
0.0
 30
0.0
 70
8
  0
VERTEX
  8
04-Cyan
 10
184.0
 20
-715.0
 30
50.0
  0
VERTEX
  8
04-Cyan
 10
187.0
 20
-715.0
 30
50.0
  0
SEQEND
  0
POLYLINE
  8
04-Cyan
 66
1
 10
0.0
 20
0.0
 30
0.0
 70
8
  0
VERTEX
  8
04-Cyan
 10
458.0
 20
-260.0
 30
50.0
  0
VERTEX
  8
04-Cyan
 10
459.0
 20
-261.0
 30
50.0
  0
SEQEND
  0
POLYLINE
  8
04-Cyan
 66
1
 10
0.0
 20
0.0
 30
0.0
 70
8
  0
VERTEX
  8
04-Cyan
 10
278.0
 20
-375.0
 30
50.0
  0
VERTEX
  8
04-Cyan
 10
282.0
 20
-375.0
 30
50.0
  0
SEQEND
  0
POLYLINE
  8
04-Cyan
 66
1
 10
0.0
 20
0.0
 30
0.0
 70
8
  0
VERTEX
  8
04-Cyan
 10
156.0
 20
-372.0
 30
50.0
  0
VERTEX
  8
04-Cyan
 10
156.0
 20
-372.0
 30
50.0
  0
SEQEND
  0
POLYLINE
  8
04-Cyan
 66
1
 10
0.0
 20
0.0
 30
0.0
 70
8
  0
VERTEX
  8
04-Cyan
 10
462.0
 20
-271.0
 30
50.0
  0
VERTEX
  8
04-Cyan
 10
463.0
 20
-273.0
 30
50.0
  0
SEQEND
  0
POLYLINE
  8
04-Cyan
 66
1
 10
0.0
 20
0.0
 30
0.0
 70
8
  0
VERTEX
  8
04-Cyan
 10
154.0
 20
-368.0
 30
50.0
  0
VERTEX
  8
04-Cyan
 10
154.0
 20
-369.0
 30
50.0
  0
SEQEND
  0
POLYLINE
  8
04-Cyan
 66
1
 10
0.0
 20
0.0
 30
0.0
 70
8
  0
VERTEX
  8
04-Cyan
 10
152.0
 20
-360.0
 30
50.0
  0
VERTEX
  8
04-Cyan
 10
153.0
 20
-362.0
 30
50.0
  0
SEQEND
  0
POLYLINE
  8
04-Cyan
 66
1
 10
0.0
 20
0.0
 30
0.0
 70
8
  0
VERTEX
  8
04-Cyan
 10
147.0
 20
-584.0
 30
50.0
  0
VERTEX
  8
04-Cyan
 10
148.0
 20
-578.0
 30
50.0
  0
SEQEND
  0
POLYLINE
  8
04-Cyan
 66
1
 10
0.0
 20
0.0
 30
0.0
 70
8
  0
VERTEX
  8
04-Cyan
 10
319.0
 20
-731.0
 30
50.0
  0
VERTEX
  8
04-Cyan
 10
331.0
 20
-731.0
 30
50.0
  0
SEQEND
  0
POLYLINE
  8
04-Cyan
 66
1
 10
0.0
 20
0.0
 30
0.0
 70
8
  0
VERTEX
  8
04-Cyan
 10
287.0
 20
-726.0
 30
50.0
  0
VERTEX
  8
04-Cyan
 10
291.0
 20
-726.0
 30
50.0
  0
SEQEND
  0
POLYLINE
  8
04-Cyan
 66
1
 10
0.0
 20
0.0
 30
0.0
 70
8
  0
VERTEX
  8
04-Cyan
 10
266.0
 20
-723.0
 30
50.0
  0
VERTEX
  8
04-Cyan
 10
270.0
 20
-723.0
 30
50.0
  0
SEQEND
  0
POLYLINE
  8
04-Cyan
 66
1
 10
0.0
 20
0.0
 30
0.0
 70
8
  0
VERTEX
  8
04-Cyan
 10
145.0
 20
-594.0
 30
50.0
  0
VERTEX
  8
04-Cyan
 10
145.0
 20
-594.0
 30
50.0
  0
SEQEND
  0
POLYLINE
  8
04-Cyan
 66
1
 10
0.0
 20
0.0
 30
0.0
 70
8
  0
VERTEX
  8
04-Cyan
 10
153.0
 20
-374.0
 30
50.0
  0
VERTEX
  8
04-Cyan
 10
153.0
 20
-376.0
 30
50.0
  0
SEQEND
  0
POLYLINE
  8
04-Cyan
 66
1
 10
0.0
 20
0.0
 30
0.0
 70
8
  0
VERTEX
  8
04-Cyan
 10
446.0
 20
-332.0
 30
50.0
  0
VERTEX
  8
04-Cyan
 10
448.0
 20
-330.0
 30
50.0
  0
SEQEND
  0
POLYLINE
  8
04-Cyan
 66
1
 10
0.0
 20
0.0
 30
0.0
 70
8
  0
VERTEX
  8
04-Cyan
 10
145.0
 20
-596.0
 30
50.0
  0
VERTEX
  8
04-Cyan
 10
145.0
 20
-596.0
 30
50.0
  0
SEQEND
  0
POLYLINE
  8
04-Cyan
 66
1
 10
0.0
 20
0.0
 30
0.0
 70
8
  0
VERTEX
  8
04-Cyan
 10
436.0
 20
-228.0
 30
50.0
  0
VERTEX
  8
04-Cyan
 10
436.0
 20
-227.0
 30
50.0
  0
SEQEND
  0
POLYLINE
  8
04-Cyan
 66
1
 10
0.0
 20
0.0
 30
0.0
 70
8
  0
VERTEX
  8
04-Cyan
 10
143.0
 20
-642.0
 30
50.0
  0
VERTEX
  8
04-Cyan
 10
143.0
 20
-649.0
 30
50.0
  0
SEQEND
  0
POLYLINE
  8
04-Cyan
 66
1
 10
0.0
 20
0.0
 30
0.0
 70
8
  0
VERTEX
  8
04-Cyan
 10
154.0
 20
-661.0
 30
50.0
  0
VERTEX
  8
04-Cyan
 10
154.0
 20
-661.0
 30
50.0
  0
SEQEND
  0
POLYLINE
  8
04-Cyan
 66
1
 10
0.0
 20
0.0
 30
0.0
 70
8
  0
VERTEX
  8
04-Cyan
 10
372.0
 20
-748.0
 30
50.0
  0
VERTEX
  8
04-Cyan
 10
372.0
 20
-737.0
 30
50.0
  0
SEQEND
  0
POLYLINE
  8
04-Cyan
 66
1
 10
0.0
 20
0.0
 30
0.0
 70
8
  0
VERTEX
  8
04-Cyan
 10
151.0
 20
-661.0
 30
50.0
  0
VERTEX
  8
04-Cyan
 10
153.0
 20
-661.0
 30
50.0
  0
SEQEND
  0
POLYLINE
  8
04-Cyan
 66
1
 10
0.0
 20
0.0
 30
0.0
 70
8
  0
VERTEX
  8
04-Cyan
 10
342.0
 20
-376.0
 30
50.0
  0
VERTEX
  8
04-Cyan
 10
344.0
 20
-376.0
 30
50.0
  0
SEQEND
  0
POLYLINE
  8
04-Cyan
 66
1
 10
0.0
 20
0.0
 30
0.0
 70
8
  0
VERTEX
  8
04-Cyan
 10
460.0
 20
-263.0
 30
50.0
  0
VERTEX
  8
04-Cyan
 10
460.0
 20
-263.0
 30
50.0
  0
SEQEND
  0
POLYLINE
  8
04-Cyan
 66
1
 10
0.0
 20
0.0
 30
0.0
 70
8
  0
VERTEX
  8
04-Cyan
 10
429.0
 20
-341.0
 30
50.0
  0
VERTEX
  8
04-Cyan
 10
430.0
 20
-340.0
 30
50.0
  0
SEQEND
  0
POLYLINE
  8
04-Cyan
 66
1
 10
0.0
 20
0.0
 30
0.0
 70
8
  0
VERTEX
  8
04-Cyan
 10
432.0
 20
-340.0
 30
50.0
  0
VERTEX
  8
04-Cyan
 10
433.0
 20
-339.0
 30
50.0
  0
SEQEND
  0
POLYLINE
  8
04-Cyan
 66
1
 10
0.0
 20
0.0
 30
0.0
 70
8
  0
VERTEX
  8
04-Cyan
 10
393.0
 20
-361.0
 30
50.0
  0
VERTEX
  8
04-Cyan
 10
393.0
 20
-361.0
 30
50.0
  0
SEQEND
  0
POLYLINE
  8
04-Cyan
 66
1
 10
0.0
 20
0.0
 30
0.0
 70
8
  0
VERTEX
  8
04-Cyan
 10
145.0
 20
-589.0
 30
50.0
  0
VERTEX
  8
04-Cyan
 10
145.0
 20
-593.0
 30
50.0
  0
SEQEND
  0
POLYLINE
  8
04-Cyan
 66
1
 10
0.0
 20
0.0
 30
0.0
 70
8
  0
VERTEX
  8
04-Cyan
 10
254.0
 20
-722.0
 30
50.0
  0
VERTEX
  8
04-Cyan
 10
258.0
 20
-722.0
 30
50.0
  0
SEQEND
  0
POLYLINE
  8
04-Cyan
 66
1
 10
0.0
 20
0.0
 30
0.0
 70
8
  0
VERTEX
  8
04-Cyan
 10
422.0
 20
-203.0
 30
50.0
  0
VERTEX
  8
04-Cyan
 10
423.0
 20
-206.0
 30
50.0
  0
SEQEND
  0
POLYLINE
  8
04-Cyan
 66
1
 10
0.0
 20
0.0
 30
0.0
 70
8
  0
VERTEX
  8
04-Cyan
 10
167.0
 20
-714.0
 30
50.0
  0
VERTEX
  8
04-Cyan
 10
172.0
 20
-714.0
 30
50.0
  0
SEQEND
  0
POLYLINE
  8
04-Cyan
 66
1
 10
0.0
 20
0.0
 30
0.0
 70
8
  0
VERTEX
  8
04-Cyan
 10
425.0
 20
-209.0
 30
50.0
  0
VERTEX
  8
04-Cyan
 10
426.0
 20
-211.0
 30
50.0
  0
SEQEND
  0
POLYLINE
  8
04-Cyan
 66
1
 10
0.0
 20
0.0
 30
0.0
 70
8
  0
VERTEX
  8
04-Cyan
 10
140.0
 20
-707.0
 30
50.0
  0
VERTEX
  8
04-Cyan
 10
140.0
 20
-707.0
 30
50.0
  0
SEQEND
  0
POLYLINE
  8
04-Cyan
 66
1
 10
0.0
 20
0.0
 30
0.0
 70
8
  0
VERTEX
  8
04-Cyan
 10
437.0
 20
-180.0
 30
50.0
  0
VERTEX
  8
04-Cyan
 10
437.0
 20
-181.0
 30
50.0
  0
SEQEND
  0
POLYLINE
  8
04-Cyan
 66
1
 10
0.0
 20
0.0
 30
0.0
 70
8
  0
VERTEX
  8
04-Cyan
 10
422.0
 20
-347.0
 30
50.0
  0
VERTEX
  8
04-Cyan
 10
424.0
 20
-345.0
 30
50.0
  0
SEQEND
  0
POLYLINE
  8
04-Cyan
 66
1
 10
0.0
 20
0.0
 30
0.0
 70
8
  0
VERTEX
  8
04-Cyan
 10
149.0
 20
-472.0
 30
50.0
  0
VERTEX
  8
04-Cyan
 10
149.0
 20
-471.0
 30
50.0
  0
SEQEND
  0
POLYLINE
  8
04-Cyan
 66
1
 10
0.0
 20
0.0
 30
0.0
 70
8
  0
VERTEX
  8
04-Cyan
 10
371.0
 20
-757.0
 30
50.0
  0
VERTEX
  8
04-Cyan
 10
371.0
 20
-758.0
 30
50.0
  0
SEQEND
  0
POLYLINE
  8
04-Cyan
 66
1
 10
0.0
 20
0.0
 30
0.0
 70
8
  0
VERTEX
  8
04-Cyan
 10
420.0
 20
-195.0
 30
50.0
  0
VERTEX
  8
04-Cyan
 10
420.0
 20
-195.0
 30
50.0
  0
SEQEND
  0
POLYLINE
  8
04-Cyan
 66
1
 10
0.0
 20
0.0
 30
0.0
 70
8
  0
VERTEX
  8
04-Cyan
 10
485.0
 20
-310.0
 30
50.0
  0
VERTEX
  8
04-Cyan
 10
486.0
 20
-311.0
 30
50.0
  0
SEQEND
  0
POLYLINE
  8
04-Cyan
 66
1
 10
0.0
 20
0.0
 30
0.0
 70
8
  0
VERTEX
  8
04-Cyan
 10
447.0
 20
-242.0
 30
50.0
  0
VERTEX
  8
04-Cyan
 10
448.0
 20
-243.0
 30
50.0
  0
SEQEND
  0
POLYLINE
  8
04-Cyan
 66
1
 10
0.0
 20
0.0
 30
0.0
 70
8
  0
VERTEX
  8
04-Cyan
 10
297.0
 20
-376.0
 30
50.0
  0
VERTEX
  8
04-Cyan
 10
303.0
 20
-376.0
 30
50.0
  0
SEQEND
  0
POLYLINE
  8
04-Cyan
 66
1
 10
0.0
 20
0.0
 30
0.0
 70
8
  0
VERTEX
  8
04-Cyan
 10
368.0
 20
-336.0
 30
50.0
  0
VERTEX
  8
04-Cyan
 10
368.0
 20
-330.0
 30
50.0
  0
SEQEND
  0
POLYLINE
  8
04-Cyan
 66
1
 10
0.0
 20
0.0
 30
0.0
 70
8
  0
VERTEX
  8
04-Cyan
 10
461.0
 20
-266.0
 30
50.0
  0
VERTEX
  8
04-Cyan
 10
461.0
 20
-266.0
 30
50.0
  0
SEQEND
  0
POLYLINE
  8
04-Cyan
 66
1
 10
0.0
 20
0.0
 30
0.0
 70
8
  0
VERTEX
  8
04-Cyan
 10
141.0
 20
-668.0
 30
50.0
  0
VERTEX
  8
04-Cyan
 10
141.0
 20
-664.0
 30
50.0
  0
SEQEND
  0
POLYLINE
  8
04-Cyan
 66
1
 10
0.0
 20
0.0
 30
0.0
 70
8
  0
VERTEX
  8
04-Cyan
 10
155.0
 20
-661.0
 30
50.0
  0
VERTEX
  8
04-Cyan
 10
155.0
 20
-661.0
 30
50.0
  0
SEQEND
  0
POLYLINE
  8
04-Cyan
 66
1
 10
0.0
 20
0.0
 30
0.0
 70
8
  0
VERTEX
  8
04-Cyan
 10
335.0
 20
-376.0
 30
50.0
  0
VERTEX
  8
04-Cyan
 10
339.0
 20
-376.0
 30
50.0
  0
SEQEND
  0
POLYLINE
  8
04-Cyan
 66
1
 10
0.0
 20
0.0
 30
0.0
 70
8
  0
VERTEX
  8
04-Cyan
 10
345.0
 20
-376.0
 30
50.0
  0
VERTEX
  8
04-Cyan
 10
347.0
 20
-376.0
 30
50.0
  0
SEQEND
  0
POLYLINE
  8
04-Cyan
 66
1
 10
0.0
 20
0.0
 30
0.0
 70
8
  0
VERTEX
  8
04-Cyan
 10
427.0
 20
-214.0
 30
50.0
  0
VERTEX
  8
04-Cyan
 10
429.0
 20
-217.0
 30
50.0
  0
SEQEND
  0
POLYLINE
  8
04-Cyan
 66
1
 10
0.0
 20
0.0
 30
0.0
 70
8
  0
VERTEX
  8
04-Cyan
 10
369.0
 20
-776.0
 30
50.0
  0
VERTEX
  8
04-Cyan
 10
369.0
 20
-772.0
 30
50.0
  0
SEQEND
  0
POLYLINE
  8
04-Cyan
 66
1
 10
0.0
 20
0.0
 30
0.0
 70
8
  0
VERTEX
  8
04-Cyan
 10
367.0
 20
-792.0
 30
50.0
  0
VERTEX
  8
04-Cyan
 10
367.0
 20
-792.0
 30
50.0
  0
SEQEND
  0
POLYLINE
  8
04-Cyan
 66
1
 10
0.0
 20
0.0
 30
0.0
 70
8
  0
VERTEX
  8
04-Cyan
 10
460.0
 20
-264.0
 30
50.0
  0
VERTEX
  8
04-Cyan
 10
461.0
 20
-265.0
 30
50.0
  0
SEQEND
  0
POLYLINE
  8
04-Cyan
 66
1
 10
0.0
 20
0.0
 30
0.0
 70
8
  0
VERTEX
  8
04-Cyan
 10
272.0
 20
-724.0
 30
50.0
  0
VERTEX
  8
04-Cyan
 10
280.0
 20
-724.0
 30
50.0
  0
SEQEND
  0
POLYLINE
  8
04-Cyan
 66
1
 10
0.0
 20
0.0
 30
0.0
 70
8
  0
VERTEX
  8
04-Cyan
 10
421.0
 20
-347.0
 30
50.0
  0
VERTEX
  8
04-Cyan
 10
421.0
 20
-347.0
 30
50.0
  0
SEQEND
  0
POLYLINE
  8
04-Cyan
 66
1
 10
0.0
 20
0.0
 30
0.0
 70
8
  0
VERTEX
  8
04-Cyan
 10
251.0
 20
-374.0
 30
50.0
  0
VERTEX
  8
04-Cyan
 10
252.0
 20
-374.0
 30
50.0
  0
SEQEND
  0
POLYLINE
  8
04-Cyan
 66
1
 10
0.0
 20
0.0
 30
0.0
 70
8
  0
VERTEX
  8
04-Cyan
 10
470.0
 20
-285.0
 30
50.0
  0
VERTEX
  8
04-Cyan
 10
473.0
 20
-289.0
 30
50.0
  0
SEQEND
  0
POLYLINE
  8
04-Cyan
 66
1
 10
0.0
 20
0.0
 30
0.0
 70
8
  0
VERTEX
  8
04-Cyan
 10
483.0
 20
-307.0
 30
50.0
  0
VERTEX
  8
04-Cyan
 10
483.0
 20
-307.0
 30
50.0
  0
SEQEND
  0
POLYLINE
  8
04-Cyan
 66
1
 10
0.0
 20
0.0
 30
0.0
 70
8
  0
VERTEX
  8
04-Cyan
 10
461.0
 20
-268.0
 30
50.0
  0
VERTEX
  8
04-Cyan
 10
461.0
 20
-268.0
 30
50.0
  0
SEQEND
  0
POLYLINE
  8
04-Cyan
 66
1
 10
0.0
 20
0.0
 30
0.0
 70
8
  0
VERTEX
  8
04-Cyan
 10
314.0
 20
-730.0
 30
50.0
  0
VERTEX
  8
04-Cyan
 10
318.0
 20
-730.0
 30
50.0
  0
SEQEND
  0
POLYLINE
  8
04-Cyan
 66
1
 10
0.0
 20
0.0
 30
0.0
 70
8
  0
VERTEX
  8
04-Cyan
 10
478.0
 20
-297.0
 30
50.0
  0
VERTEX
  8
04-Cyan
 10
481.0
 20
-302.0
 30
50.0
  0
SEQEND
  0
POLYLINE
  8
04-Cyan
 66
1
 10
0.0
 20
0.0
 30
0.0
 70
8
  0
VERTEX
  8
04-Cyan
 10
491.0
 20
-315.0
 30
50.0
  0
VERTEX
  8
04-Cyan
 10
491.0
 20
-315.0
 30
50.0
  0
SEQEND
  0
POLYLINE
  8
04-Cyan
 66
1
 10
0.0
 20
0.0
 30
0.0
 70
8
  0
VERTEX
  8
04-Cyan
 10
367.0
 20
-326.0
 30
50.0
  0
VERTEX
  8
04-Cyan
 10
368.0
 20
-328.0
 30
50.0
  0
SEQEND
  0
POLYLINE
  8
04-Cyan
 66
1
 10
0.0
 20
0.0
 30
0.0
 70
8
  0
VERTEX
  8
04-Cyan
 10
370.0
 20
-756.0
 30
50.0
  0
VERTEX
  8
04-Cyan
 10
370.0
 20
-755.0
 30
50.0
  0
SEQEND
  0
POLYLINE
  8
04-Cyan
 66
1
 10
0.0
 20
0.0
 30
0.0
 70
8
  0
VERTEX
  8
04-Cyan
 10
149.0
 20
-519.0
 30
50.0
  0
VERTEX
  8
04-Cyan
 10
149.0
 20
-519.0
 30
50.0
  0
SEQEND
  0
POLYLINE
  8
04-Cyan
 66
1
 10
0.0
 20
0.0
 30
0.0
 70
8
  0
VERTEX
  8
04-Cyan
 10
307.0
 20
-728.0
 30
50.0
  0
VERTEX
  8
04-Cyan
 10
308.0
 20
-729.0
 30
50.0
  0
SEQEND
  0
POLYLINE
  8
04-Cyan
 66
1
 10
0.0
 20
0.0
 30
0.0
 70
8
  0
VERTEX
  8
04-Cyan
 10
146.0
 20
-660.0
 30
50.0
  0
VERTEX
  8
04-Cyan
 10
147.0
 20
-660.0
 30
50.0
  0
SEQEND
  0
POLYLINE
  8
04-Cyan
 66
1
 10
0.0
 20
0.0
 30
0.0
 70
8
  0
VERTEX
  8
04-Cyan
 10
144.0
 20
-660.0
 30
50.0
  0
VERTEX
  8
04-Cyan
 10
144.0
 20
-660.0
 30
50.0
  0
SEQEND
  0
POLYLINE
  8
04-Cyan
 66
1
 10
0.0
 20
0.0
 30
0.0
 70
8
  0
VERTEX
  8
04-Cyan
 10
151.0
 20
-462.0
 30
50.0
  0
VERTEX
  8
04-Cyan
 10
151.0
 20
-459.0
 30
50.0
  0
SEQEND
  0
POLYLINE
  8
04-Cyan
 66
1
 10
0.0
 20
0.0
 30
0.0
 70
8
  0
VERTEX
  8
04-Cyan
 10
177.0
 20
-714.0
 30
50.0
  0
VERTEX
  8
04-Cyan
 10
177.0
 20
-714.0
 30
50.0
  0
SEQEND
  0
POLYLINE
  8
04-Cyan
 66
1
 10
0.0
 20
0.0
 30
0.0
 70
8
  0
VERTEX
  8
04-Cyan
 10
481.0
 20
-303.0
 30
50.0
  0
VERTEX
  8
04-Cyan
 10
482.0
 20
-304.0
 30
50.0
  0
SEQEND
  0
POLYLINE
  8
04-Cyan
 66
1
 10
0.0
 20
0.0
 30
0.0
 70
8
  0
VERTEX
  8
04-Cyan
 10
477.0
 20
-314.0
 30
50.0
  0
VERTEX
  8
04-Cyan
 10
478.0
 20
-313.0
 30
50.0
  0
SEQEND
  0
POLYLINE
  8
04-Cyan
 66
1
 10
0.0
 20
0.0
 30
0.0
 70
8
  0
VERTEX
  8
04-Cyan
 10
143.0
 20
-656.0
 30
50.0
  0
VERTEX
  8
04-Cyan
 10
144.0
 20
-658.0
 30
50.0
  0
SEQEND
  0
POLYLINE
  8
04-Cyan
 66
1
 10
0.0
 20
0.0
 30
0.0
 70
8
  0
VERTEX
  8
04-Cyan
 10
369.0
 20
-369.0
 30
50.0
  0
VERTEX
  8
04-Cyan
 10
369.0
 20
-365.0
 30
50.0
  0
SEQEND
  0
POLYLINE
  8
04-Cyan
 66
1
 10
0.0
 20
0.0
 30
0.0
 70
8
  0
VERTEX
  8
04-Cyan
 10
390.0
 20
-364.0
 30
50.0
  0
VERTEX
  8
04-Cyan
 10
392.0
 20
-362.0
 30
50.0
  0
SEQEND
  0
POLYLINE
  8
04-Cyan
 66
1
 10
0.0
 20
0.0
 30
0.0
 70
8
  0
VERTEX
  8
04-Cyan
 10
148.0
 20
-533.0
 30
50.0
  0
VERTEX
  8
04-Cyan
 10
149.0
 20
-536.0
 30
50.0
  0
SEQEND
  0
POLYLINE
  8
04-Cyan
 66
1
 10
0.0
 20
0.0
 30
0.0
 70
8
  0
VERTEX
  8
04-Cyan
 10
145.0
 20
-595.0
 30
50.0
  0
VERTEX
  8
04-Cyan
 10
145.0
 20
-595.0
 30
50.0
  0
SEQEND
  0
POLYLINE
  8
04-Cyan
 66
1
 10
0.0
 20
0.0
 30
0.0
 70
8
  0
VERTEX
  8
04-Cyan
 10
153.0
 20
-363.0
 30
50.0
  0
VERTEX
  8
04-Cyan
 10
153.0
 20
-365.0
 30
50.0
  0
SEQEND
  0
POLYLINE
  8
04-Cyan
 66
1
 10
0.0
 20
0.0
 30
0.0
 70
8
  0
VERTEX
  8
04-Cyan
 10
474.0
 20
-315.0
 30
50.0
  0
VERTEX
  8
04-Cyan
 10
475.0
 20
-315.0
 30
50.0
  0
SEQEND
  0
POLYLINE
  8
04-Cyan
 66
1
 10
0.0
 20
0.0
 30
0.0
 70
8
  0
VERTEX
  8
04-Cyan
 10
157.0
 20
-372.0
 30
50.0
  0
VERTEX
  8
04-Cyan
 10
159.0
 20
-372.0
 30
50.0
  0
SEQEND
  0
POLYLINE
  8
04-Cyan
 66
1
 10
0.0
 20
0.0
 30
0.0
 70
8
  0
VERTEX
  8
04-Cyan
 10
153.0
 20
-354.0
 30
50.0
  0
VERTEX
  8
04-Cyan
 10
153.0
 20
-354.0
 30
50.0
  0
SEQEND
  0
POLYLINE
  8
04-Cyan
 66
1
 10
0.0
 20
0.0
 30
0.0
 70
8
  0
VERTEX
  8
04-Cyan
 10
370.0
 20
-771.0
 30
50.0
  0
VERTEX
  8
04-Cyan
 10
370.0
 20
-759.0
 30
50.0
  0
SEQEND
  0
POLYLINE
  8
04-Cyan
 66
1
 10
0.0
 20
0.0
 30
0.0
 70
8
  0
VERTEX
  8
04-Cyan
 10
394.0
 20
-360.0
 30
50.0
  0
VERTEX
  8
04-Cyan
 10
395.0
 20
-360.0
 30
50.0
  0
SEQEND
  0
POLYLINE
  8
04-Cyan
 66
1
 10
0.0
 20
0.0
 30
0.0
 70
8
  0
VERTEX
  8
04-Cyan
 10
149.0
 20
-518.0
 30
50.0
  0
VERTEX
  8
04-Cyan
 10
149.0
 20
-515.0
 30
50.0
  0
SEQEND
  0
POLYLINE
  8
04-Cyan
 66
1
 10
0.0
 20
0.0
 30
0.0
 70
8
  0
VERTEX
  8
04-Cyan
 10
163.0
 20
-372.0
 30
50.0
  0
VERTEX
  8
04-Cyan
 10
163.0
 20
-372.0
 30
50.0
  0
SEQEND
  0
POLYLINE
  8
04-Cyan
 66
1
 10
0.0
 20
0.0
 30
0.0
 70
8
  0
VERTEX
  8
04-Cyan
 10
145.0
 20
-598.0
 30
50.0
  0
VERTEX
  8
04-Cyan
 10
146.0
 20
-599.0
 30
50.0
  0
SEQEND
  0
POLYLINE
  8
04-Cyan
 66
1
 10
0.0
 20
0.0
 30
0.0
 70
8
  0
VERTEX
  8
04-Cyan
 10
360.0
 20
-377.0
 30
50.0
  0
VERTEX
  8
04-Cyan
 10
360.0
 20
-377.0
 30
50.0
  0
SEQEND
  0
POLYLINE
  8
04-Cyan
 66
1
 10
0.0
 20
0.0
 30
0.0
 70
8
  0
VERTEX
  8
04-Cyan
 10
404.0
 20
-356.0
 30
50.0
  0
VERTEX
  8
04-Cyan
 10
405.0
 20
-355.0
 30
50.0
  0
SEQEND
  0
POLYLINE
  8
04-Cyan
 66
1
 10
0.0
 20
0.0
 30
0.0
 70
8
  0
VERTEX
  8
04-Cyan
 10
462.0
 20
-269.0
 30
50.0
  0
VERTEX
  8
04-Cyan
 10
462.0
 20
-270.0
 30
50.0
  0
SEQEND
  0
POLYLINE
  8
04-Cyan
 66
1
 10
0.0
 20
0.0
 30
0.0
 70
8
  0
VERTEX
  8
04-Cyan
 10
139.0
 20
-689.0
 30
50.0
  0
VERTEX
  8
04-Cyan
 10
139.0
 20
-695.0
 30
50.0
  0
SEQEND
  0
POLYLINE
  8
04-Cyan
 66
1
 10
0.0
 20
0.0
 30
0.0
 70
8
  0
VERTEX
  8
04-Cyan
 10
367.0
 20
-789.0
 30
50.0
  0
VERTEX
  8
04-Cyan
 10
367.0
 20
-785.0
 30
50.0
  0
SEQEND
  0
POLYLINE
  8
04-Cyan
 66
1
 10
0.0
 20
0.0
 30
0.0
 70
8
  0
VERTEX
  8
04-Cyan
 10
476.0
 20
-314.0
 30
50.0
  0
VERTEX
  8
04-Cyan
 10
476.0
 20
-314.0
 30
50.0
  0
SEQEND
  0
POLYLINE
  8
04-Cyan
 66
1
 10
0.0
 20
0.0
 30
0.0
 70
8
  0
VERTEX
  8
04-Cyan
 10
140.0
 20
-711.0
 30
50.0
  0
VERTEX
  8
04-Cyan
 10
140.0
 20
-710.0
 30
50.0
  0
SEQEND
  0
POLYLINE
  8
04-Cyan
 66
1
 10
0.0
 20
0.0
 30
0.0
 70
8
  0
VERTEX
  8
04-Cyan
 10
366.0
 20
-374.0
 30
50.0
  0
VERTEX
  8
04-Cyan
 10
366.0
 20
-374.0
 30
50.0
  0
SEQEND
  0
POLYLINE
  8
04-Cyan
 66
1
 10
0.0
 20
0.0
 30
0.0
 70
8
  0
VERTEX
  8
04-Cyan
 10
286.0
 20
-376.0
 30
50.0
  0
VERTEX
  8
04-Cyan
 10
287.0
 20
-376.0
 30
50.0
  0
SEQEND
  0
POLYLINE
  8
04-Cyan
 66
1
 10
0.0
 20
0.0
 30
0.0
 70
8
  0
VERTEX
  8
04-Cyan
 10
153.0
 20
-366.0
 30
50.0
  0
VERTEX
  8
04-Cyan
 10
153.0
 20
-367.0
 30
50.0
  0
SEQEND
  0
POLYLINE
  8
04-Cyan
 66
1
 10
0.0
 20
0.0
 30
0.0
 70
8
  0
VERTEX
  8
04-Cyan
 10
149.0
 20
-661.0
 30
50.0
  0
VERTEX
  8
04-Cyan
 10
149.0
 20
-661.0
 30
50.0
  0
SEQEND
  0
POLYLINE
  8
04-Cyan
 66
1
 10
0.0
 20
0.0
 30
0.0
 70
8
  0
VERTEX
  8
04-Cyan
 10
415.0
 20
-351.0
 30
50.0
  0
VERTEX
  8
04-Cyan
 10
418.0
 20
-349.0
 30
50.0
  0
SEQEND
  0
POLYLINE
  8
04-Cyan
 66
1
 10
0.0
 20
0.0
 30
0.0
 70
8
  0
VERTEX
  8
04-Cyan
 10
400.0
 20
-358.0
 30
50.0
  0
VERTEX
  8
04-Cyan
 10
402.0
 20
-356.0
 30
50.0
  0
SEQEND
  0
POLYLINE
  8
04-Cyan
 66
1
 10
0.0
 20
0.0
 30
0.0
 70
8
  0
VERTEX
  8
04-Cyan
 10
370.0
 20
-735.0
 30
50.0
  0
VERTEX
  8
04-Cyan
 10
371.0
 20
-736.0
 30
50.0
  0
SEQEND
  0
POLYLINE
  8
04-Cyan
 66
1
 10
0.0
 20
0.0
 30
0.0
 70
8
  0
VERTEX
  8
04-Cyan
 10
156.0
 20
-661.0
 30
50.0
  0
VERTEX
  8
04-Cyan
 10
159.0
 20
-661.0
 30
50.0
  0
SEQEND
  0
POLYLINE
  8
04-Cyan
 66
1
 10
0.0
 20
0.0
 30
0.0
 70
8
  0
VERTEX
  8
04-Cyan
 10
479.0
 20
-313.0
 30
50.0
  0
VERTEX
  8
04-Cyan
 10
482.0
 20
-311.0
 30
50.0
  0
SEQEND
  0
POLYLINE
  8
04-Cyan
 66
1
 10
0.0
 20
0.0
 30
0.0
 70
8
  0
VERTEX
  8
04-Cyan
 10
155.0
 20
-328.0
 30
50.0
  0
VERTEX
  8
04-Cyan
 10
156.0
 20
-325.0
 30
50.0
  0
SEQEND
  0
POLYLINE
  8
04-Cyan
 66
1
 10
0.0
 20
0.0
 30
0.0
 70
8
  0
VERTEX
  8
04-Cyan
 10
437.0
 20
-229.0
 30
50.0
  0
VERTEX
  8
04-Cyan
 10
437.0
 20
-229.0
 30
50.0
  0
SEQEND
  0
POLYLINE
  8
04-Cyan
 66
1
 10
0.0
 20
0.0
 30
0.0
 70
8
  0
VERTEX
  8
04-Cyan
 10
487.0
 20
-311.0
 30
50.0
  0
VERTEX
  8
04-Cyan
 10
490.0
 20
-314.0
 30
50.0
  0
SEQEND
  0
POLYLINE
  8
04-Cyan
 66
1
 10
0.0
 20
0.0
 30
0.0
 70
8
  0
VERTEX
  8
04-Cyan
 10
421.0
 20
-201.0
 30
50.0
  0
VERTEX
  8
04-Cyan
 10
421.0
 20
-199.0
 30
50.0
  0
SEQEND
  0
POLYLINE
  8
04-Cyan
 66
1
 10
0.0
 20
0.0
 30
0.0
 70
8
  0
VERTEX
  8
04-Cyan
 10
162.0
 20
-713.0
 30
50.0
  0
VERTEX
  8
04-Cyan
 10
166.0
 20
-713.0
 30
50.0
  0
SEQEND
  0
POLYLINE
  8
04-Cyan
 66
1
 10
0.0
 20
0.0
 30
0.0
 70
8
  0
VERTEX
  8
04-Cyan
 10
420.0
 20
-194.0
 30
50.0
  0
VERTEX
  8
04-Cyan
 10
427.0
 20
-187.0
 30
50.0
  0
SEQEND
  0
POLYLINE
  8
04-Cyan
 66
1
 10
0.0
 20
0.0
 30
0.0
 70
8
  0
VERTEX
  8
04-Cyan
 10
304.0
 20
-728.0
 30
50.0
  0
VERTEX
  8
04-Cyan
 10
306.0
 20
-728.0
 30
50.0
  0
SEQEND
  0
POLYLINE
  8
04-Cyan
 66
1
 10
0.0
 20
0.0
 30
0.0
 70
8
  0
VERTEX
  8
04-Cyan
 10
216.0
 20
-719.0
 30
50.0
  0
VERTEX
  8
04-Cyan
 10
219.0
 20
-719.0
 30
50.0
  0
SEQEND
  0
POLYLINE
  8
04-Cyan
 66
1
 10
0.0
 20
0.0
 30
0.0
 70
8
  0
VERTEX
  8
04-Cyan
 10
309.0
 20
-729.0
 30
50.0
  0
VERTEX
  8
04-Cyan
 10
313.0
 20
-729.0
 30
50.0
  0
SEQEND
  0
POLYLINE
  8
04-Cyan
 66
1
 10
0.0
 20
0.0
 30
0.0
 70
8
  0
VERTEX
  8
04-Cyan
 10
284.0
 20
-376.0
 30
50.0
  0
VERTEX
  8
04-Cyan
 10
285.0
 20
-376.0
 30
50.0
  0
SEQEND
  0
POLYLINE
  8
04-Cyan
 66
1
 10
0.0
 20
0.0
 30
0.0
 70
8
  0
VERTEX
  8
04-Cyan
 10
369.0
 20
-371.0
 30
50.0
  0
VERTEX
  8
04-Cyan
 10
369.0
 20
-371.0
 30
50.0
  0
SEQEND
  0
POLYLINE
  8
04-Cyan
 66
1
 10
0.0
 20
0.0
 30
0.0
 70
8
  0
VERTEX
  8
04-Cyan
 10
248.0
 20
-722.0
 30
50.0
  0
VERTEX
  8
04-Cyan
 10
252.0
 20
-722.0
 30
50.0
  0
SEQEND
  0
POLYLINE
  8
04-Cyan
 66
1
 10
0.0
 20
0.0
 30
0.0
 70
8
  0
VERTEX
  8
04-Cyan
 10
364.0
 20
-376.0
 30
50.0
  0
VERTEX
  8
04-Cyan
 10
365.0
 20
-375.0
 30
50.0
  0
SEQEND
  0
POLYLINE
  8
04-Cyan
 66
1
 10
0.0
 20
0.0
 30
0.0
 70
8
  0
VERTEX
  8
04-Cyan
 10
434.0
 20
-224.0
 30
50.0
  0
VERTEX
  8
04-Cyan
 10
435.0
 20
-226.0
 30
50.0
  0
SEQEND
  0
POLYLINE
  8
04-Cyan
 66
1
 10
0.0
 20
0.0
 30
0.0
 70
8
  0
VERTEX
  8
04-Cyan
 10
444.0
 20
-239.0
 30
50.0
  0
VERTEX
  8
04-Cyan
 10
446.0
 20
-241.0
 30
50.0
  0
SEQEND
  0
POLYLINE
  8
04-Cyan
 66
1
 10
0.0
 20
0.0
 30
0.0
 70
8
  0
VERTEX
  8
04-Cyan
 10
374.0
 20
-369.0
 30
50.0
  0
VERTEX
  8
04-Cyan
 10
378.0
 20
-369.0
 30
50.0
  0
SEQEND
  0
INSERT
  8
0
  2
lamp
 10
186.0
 20
-535.0
 30
0.0
 41
1.0
 42
1.0
 43
1.0
  0
INSERT
  8
0
  2
lamp
 10
596.0
 20
-401.0
 30
0.0
 41
1.0
 42
1.0
 43
1.0
  0
INSERT
  8
0
  2
lamp
 10
317.0
 20
-225.0
 30
0.0
 41
1.0
 42
1.0
 43
1.0
  0
INSERT
  8
0
  2
tree
 10
699.0
 20
-592.0
 30
0.0
 41
1.0
 42
1.0
 43
1.0
  0
INSERT
  8
0
  2
tree
 10
690.0
 20
-523.0
 30
0.0
 41
1.0
 42
1.0
 43
1.0
  0
INSERT
  8
0
  2
tree
 10
690.0
 20
-498.0
 30
0.0
 41
1.0
 42
1.0
 43
1.0
  0
INSERT
  8
0
  2
tree
 10
706.0
 20
-480.0
 30
0.0
 41
1.0
 42
1.0
 43
1.0
  0
INSERT
  8
0
  2
tree
 10
696.0
 20
-423.0
 30
0.0
 41
1.0
 42
1.0
 43
1.0
  0
INSERT
  8
0
  2
tree
 10
720.0
 20
-401.0
 30
0.0
 41
1.0
 42
1.0
 43
1.0
  0
INSERT
  8
0
  2
tree
 10
690.0
 20
-372.0
 30
0.0
 41
1.0
 42
1.0
 43
1.0
  0
INSERT
  8
0
  2
tree
 10
543.0
 20
-328.0
 30
0.0
 41
1.0
 42
1.0
 43
1.0
  0
INSERT
  8
0
  2
tree
 10
619.0
 20
-326.0
 30
0.0
 41
1.0
 42
1.0
 43
1.0
  0
INSERT
  8
0
  2
tree
 10
516.0
 20
-313.0
 30
0.0
 41
1.0
 42
1.0
 43
1.0
  0
INSERT
  8
0
  2
tree
 10
579.0
 20
-300.0
 30
0.0
 41
1.0
 42
1.0
 43
1.0
  0
INSERT
  8
0
  2
tree
 10
535.0
 20
-279.0
 30
0.0
 41
1.0
 42
1.0
 43
1.0
  0
INSERT
  8
0
  2
tree
 10
457.0
 20
-200.0
 30
0.0
 41
1.0
 42
1.0
 43
1.0
  0
INSERT
  8
0
  2
tree
 10
431.0
 20
-158.0
 30
0.0
 41
1.0
 42
1.0
 43
1.0
  0
INSERT
  8
0
  2
tree
 10
468.0
 20
-165.0
 30
0.0
 41
1.0
 42
1.0
 43
1.0
  0
INSERT
  8
0
  2
tree
 10
429.0
 20
-102.0
 30
0.0
 41
1.0
 42
1.0
 43
1.0
  0
INSERT
  8
0
  2
tree
 10
292.0
 20
-77.0
 30
0.0
 41
1.0
 42
1.0
 43
1.0
  0
POLYLINE
  8
06-Magenta
 66
1
 10
0.0
 20
0.0
 30
0.0
 70
8
  0
VERTEX
  8
06-Magenta
 10
282.0
 20
-173.0
 30
0.0
  0
VERTEX
  8
06-Magenta
 10
284.0
 20
-172.0
 30
0.0
  0
SEQEND
  0
POLYLINE
  8
06-Magenta
 66
1
 10
0.0
 20
0.0
 30
0.0
 70
8
  0
VERTEX
  8
06-Magenta
 10
121.0
 20
-495.0
 30
0.0
  0
VERTEX
  8
06-Magenta
 10
121.0
 20
-515.0
 30
0.0
  0
SEQEND
  0
POLYLINE
  8
06-Magenta
 66
1
 10
0.0
 20
0.0
 30
0.0
 70
8
  0
VERTEX
  8
06-Magenta
 10
255.0
 20
-748.0
 30
0.0
  0
VERTEX
  8
06-Magenta
 10
272.0
 20
-748.0
 30
0.0
  0
SEQEND
  0
POLYLINE
  8
06-Magenta
 66
1
 10
0.0
 20
0.0
 30
0.0
 70
8
  0
VERTEX
  8
06-Magenta
 10
160.0
 20
-244.0
 30
0.0
  0
VERTEX
  8
06-Magenta
 10
164.0
 20
-242.0
 30
0.0
  0
SEQEND
  0
POLYLINE
  8
06-Magenta
 66
1
 10
0.0
 20
0.0
 30
0.0
 70
8
  0
VERTEX
  8
06-Magenta
 10
493.0
 20
-762.0
 30
0.0
  0
VERTEX
  8
06-Magenta
 10
497.0
 20
-762.0
 30
0.0
  0
SEQEND
  0
POLYLINE
  8
06-Magenta
 66
1
 10
0.0
 20
0.0
 30
0.0
 70
8
  0
VERTEX
  8
06-Magenta
 10
636.0
 20
-618.0
 30
0.0
  0
VERTEX
  8
06-Magenta
 10
636.0
 20
-602.0
 30
0.0
  0
SEQEND
  0
POLYLINE
  8
06-Magenta
 66
1
 10
0.0
 20
0.0
 30
0.0
 70
8
  0
VERTEX
  8
06-Magenta
 10
119.0
 20
-404.0
 30
0.0
  0
VERTEX
  8
06-Magenta
 10
119.0
 20
-366.0
 30
0.0
  0
SEQEND
  0
POLYLINE
  8
06-Magenta
 66
1
 10
0.0
 20
0.0
 30
0.0
 70
8
  0
VERTEX
  8
06-Magenta
 10
183.0
 20
-230.0
 30
0.0
  0
VERTEX
  8
06-Magenta
 10
183.0
 20
-230.0
 30
0.0
  0
SEQEND
  0
POLYLINE
  8
06-Magenta
 66
1
 10
0.0
 20
0.0
 30
0.0
 70
8
  0
VERTEX
  8
06-Magenta
 10
120.0
 20
-354.0
 30
0.0
  0
VERTEX
  8
06-Magenta
 10
120.0
 20
-308.0
 30
0.0
  0
SEQEND
  0
POLYLINE
  8
06-Magenta
 66
1
 10
0.0
 20
0.0
 30
0.0
 70
8
  0
VERTEX
  8
06-Magenta
 10
182.0
 20
-230.0
 30
0.0
  0
VERTEX
  8
06-Magenta
 10
182.0
 20
-230.0
 30
0.0
  0
SEQEND
  0
POLYLINE
  8
06-Magenta
 66
1
 10
0.0
 20
0.0
 30
0.0
 70
8
  0
VERTEX
  8
06-Magenta
 10
519.0
 20
-767.0
 30
0.0
  0
VERTEX
  8
06-Magenta
 10
546.0
 20
-769.0
 30
0.0
  0
SEQEND
  0
POLYLINE
  8
06-Magenta
 66
1
 10
0.0
 20
0.0
 30
0.0
 70
8
  0
VERTEX
  8
06-Magenta
 10
631.0
 20
-771.0
 30
0.0
  0
VERTEX
  8
06-Magenta
 10
632.0
 20
-742.0
 30
0.0
  0
SEQEND
  0
POLYLINE
  8
06-Magenta
 66
1
 10
0.0
 20
0.0
 30
0.0
 70
8
  0
VERTEX
  8
06-Magenta
 10
346.0
 20
-758.0
 30
0.0
  0
VERTEX
  8
06-Magenta
 10
356.0
 20
-758.0
 30
0.0
  0
SEQEND
  0
POLYLINE
  8
06-Magenta
 66
1
 10
0.0
 20
0.0
 30
0.0
 70
8
  0
VERTEX
  8
06-Magenta
 10
568.0
 20
-772.0
 30
0.0
  0
VERTEX
  8
06-Magenta
 10
586.0
 20
-772.0
 30
0.0
  0
SEQEND
  0
POLYLINE
  8
06-Magenta
 66
1
 10
0.0
 20
0.0
 30
0.0
 70
8
  0
VERTEX
  8
06-Magenta
 10
220.0
 20
-746.0
 30
0.0
  0
VERTEX
  8
06-Magenta
 10
239.0
 20
-746.0
 30
0.0
  0
SEQEND
  0
POLYLINE
  8
06-Magenta
 66
1
 10
0.0
 20
0.0
 30
0.0
 70
8
  0
VERTEX
  8
06-Magenta
 10
118.0
 20
-418.0
 30
0.0
  0
VERTEX
  8
06-Magenta
 10
118.0
 20
-405.0
 30
0.0
  0
SEQEND
  0
POLYLINE
  8
06-Magenta
 66
1
 10
0.0
 20
0.0
 30
0.0
 70
8
  0
VERTEX
  8
06-Magenta
 10
222.0
 20
-208.0
 30
0.0
  0
VERTEX
  8
06-Magenta
 10
223.0
 20
-207.0
 30
0.0
  0
SEQEND
  0
POLYLINE
  8
06-Magenta
 66
1
 10
0.0
 20
0.0
 30
0.0
 70
8
  0
VERTEX
  8
06-Magenta
 10
133.0
 20
-738.0
 30
0.0
  0
VERTEX
  8
06-Magenta
 10
147.0
 20
-740.0
 30
0.0
  0
SEQEND
  0
POLYLINE
  8
06-Magenta
 66
1
 10
0.0
 20
0.0
 30
0.0
 70
8
  0
VERTEX
  8
06-Magenta
 10
636.0
 20
-652.0
 30
0.0
  0
VERTEX
  8
06-Magenta
 10
636.0
 20
-686.0
 30
0.0
  0
SEQEND
  0
POLYLINE
  8
06-Magenta
 66
1
 10
0.0
 20
0.0
 30
0.0
 70
8
  0
VERTEX
  8
06-Magenta
 10
589.0
 20
-772.0
 30
0.0
  0
VERTEX
  8
06-Magenta
 10
596.0
 20
-772.0
 30
0.0
  0
SEQEND
  0
POLYLINE
  8
06-Magenta
 66
1
 10
0.0
 20
0.0
 30
0.0
 70
8
  0
VERTEX
  8
06-Magenta
 10
429.0
 20
-758.0
 30
0.0
  0
VERTEX
  8
06-Magenta
 10
447.0
 20
-758.0
 30
0.0
  0
SEQEND
  0
POLYLINE
  8
06-Magenta
 66
1
 10
0.0
 20
0.0
 30
0.0
 70
8
  0
VERTEX
  8
06-Magenta
 10
122.0
 20
-531.0
 30
0.0
  0
VERTEX
  8
06-Magenta
 10
122.0
 20
-524.0
 30
0.0
  0
SEQEND
  0
POLYLINE
  8
06-Magenta
 66
1
 10
0.0
 20
0.0
 30
0.0
 70
8
  0
VERTEX
  8
06-Magenta
 10
167.0
 20
-358.0
 30
0.0
  0
VERTEX
  8
06-Magenta
 10
175.0
 20
-358.0
 30
0.0
  0
SEQEND
  0
POLYLINE
  8
06-Magenta
 66
1
 10
0.0
 20
0.0
 30
0.0
 70
8
  0
VERTEX
  8
06-Magenta
 10
192.0
 20
-745.0
 30
0.0
  0
VERTEX
  8
06-Magenta
 10
217.0
 20
-745.0
 30
0.0
  0
SEQEND
  0
POLYLINE
  8
06-Magenta
 66
1
 10
0.0
 20
0.0
 30
0.0
 70
8
  0
VERTEX
  8
06-Magenta
 10
137.0
 20
-298.0
 30
0.0
  0
VERTEX
  8
06-Magenta
 10
137.0
 20
-298.0
 30
0.0
  0
SEQEND
  0
POLYLINE
  8
06-Magenta
 66
1
 10
0.0
 20
0.0
 30
0.0
 70
8
  0
VERTEX
  8
06-Magenta
 10
119.0
 20
-465.0
 30
0.0
  0
VERTEX
  8
06-Magenta
 10
119.0
 20
-430.0
 30
0.0
  0
SEQEND
  0
POLYLINE
  8
06-Magenta
 66
1
 10
0.0
 20
0.0
 30
0.0
 70
8
  0
VERTEX
  8
06-Magenta
 10
123.0
 20
-536.0
 30
0.0
  0
VERTEX
  8
06-Magenta
 10
123.0
 20
-532.0
 30
0.0
  0
SEQEND
  0
POLYLINE
  8
06-Magenta
 66
1
 10
0.0
 20
0.0
 30
0.0
 70
8
  0
VERTEX
  8
06-Magenta
 10
122.0
 20
-583.0
 30
0.0
  0
VERTEX
  8
06-Magenta
 10
122.0
 20
-565.0
 30
0.0
  0
SEQEND
  0
POLYLINE
  8
06-Magenta
 66
1
 10
0.0
 20
0.0
 30
0.0
 70
8
  0
VERTEX
  8
06-Magenta
 10
118.0
 20
-673.0
 30
0.0
  0
VERTEX
  8
06-Magenta
 10
118.0
 20
-645.0
 30
0.0
  0
SEQEND
  0
POLYLINE
  8
06-Magenta
 66
1
 10
0.0
 20
0.0
 30
0.0
 70
8
  0
VERTEX
  8
06-Magenta
 10
249.0
 20
-357.0
 30
0.0
  0
VERTEX
  8
06-Magenta
 10
249.0
 20
-357.0
 30
0.0
  0
SEQEND
  0
POLYLINE
  8
06-Magenta
 66
1
 10
0.0
 20
0.0
 30
0.0
 70
8
  0
VERTEX
  8
06-Magenta
 10
119.0
 20
-271.0
 30
0.0
  0
VERTEX
  8
06-Magenta
 10
119.0
 20
-271.0
 30
0.0
  0
SEQEND
  0
POLYLINE
  8
06-Magenta
 66
1
 10
0.0
 20
0.0
 30
0.0
 70
8
  0
VERTEX
  8
06-Magenta
 10
635.0
 20
-717.0
 30
0.0
  0
VERTEX
  8
06-Magenta
 10
635.0
 20
-692.0
 30
0.0
  0
SEQEND
  0
POLYLINE
  8
06-Magenta
 66
1
 10
0.0
 20
0.0
 30
0.0
 70
8
  0
VERTEX
  8
06-Magenta
 10
192.0
 20
-361.0
 30
0.0
  0
VERTEX
  8
06-Magenta
 10
203.0
 20
-361.0
 30
0.0
  0
SEQEND
  0
POLYLINE
  8
06-Magenta
 66
1
 10
0.0
 20
0.0
 30
0.0
 70
8
  0
VERTEX
  8
06-Magenta
 10
475.0
 20
-760.0
 30
0.0
  0
VERTEX
  8
06-Magenta
 10
482.0
 20
-760.0
 30
0.0
  0
SEQEND
  0
POLYLINE
  8
06-Magenta
 66
1
 10
0.0
 20
0.0
 30
0.0
 70
8
  0
VERTEX
  8
06-Magenta
 10
134.0
 20
-635.0
 30
0.0
  0
VERTEX
  8
06-Magenta
 10
138.0
 20
-635.0
 30
0.0
  0
SEQEND
  0
POLYLINE
  8
06-Magenta
 66
1
 10
0.0
 20
0.0
 30
0.0
 70
8
  0
VERTEX
  8
06-Magenta
 10
179.0
 20
-744.0
 30
0.0
  0
VERTEX
  8
06-Magenta
 10
184.0
 20
-744.0
 30
0.0
  0
SEQEND
  0
POLYLINE
  8
06-Magenta
 66
1
 10
0.0
 20
0.0
 30
0.0
 70
8
  0
VERTEX
  8
06-Magenta
 10
211.0
 20
-218.0
 30
0.0
  0
VERTEX
  8
06-Magenta
 10
216.0
 20
-216.0
 30
0.0
  0
SEQEND
  0
POLYLINE
  8
06-Magenta
 66
1
 10
0.0
 20
0.0
 30
0.0
 70
8
  0
VERTEX
  8
06-Magenta
 10
384.0
 20
-758.0
 30
0.0
  0
VERTEX
  8
06-Magenta
 10
390.0
 20
-758.0
 30
0.0
  0
SEQEND
  0
POLYLINE
  8
06-Magenta
 66
1
 10
0.0
 20
0.0
 30
0.0
 70
8
  0
VERTEX
  8
06-Magenta
 10
119.0
 20
-272.0
 30
0.0
  0
VERTEX
  8
06-Magenta
 10
119.0
 20
-273.0
 30
0.0
  0
SEQEND
  0
POLYLINE
  8
06-Magenta
 66
1
 10
0.0
 20
0.0
 30
0.0
 70
8
  0
VERTEX
  8
06-Magenta
 10
636.0
 20
-638.0
 30
0.0
  0
VERTEX
  8
06-Magenta
 10
636.0
 20
-626.0
 30
0.0
  0
SEQEND
  0
POLYLINE
  8
06-Magenta
 66
1
 10
0.0
 20
0.0
 30
0.0
 70
8
  0
VERTEX
  8
06-Magenta
 10
261.0
 20
-185.0
 30
0.0
  0
VERTEX
  8
06-Magenta
 10
262.0
 20
-184.0
 30
0.0
  0
SEQEND
  0
POLYLINE
  8
06-Magenta
 66
1
 10
0.0
 20
0.0
 30
0.0
 70
8
  0
VERTEX
  8
06-Magenta
 10
172.0
 20
-237.0
 30
0.0
  0
VERTEX
  8
06-Magenta
 10
174.0
 20
-235.0
 30
0.0
  0
SEQEND
  0
POLYLINE
  8
06-Magenta
 66
1
 10
0.0
 20
0.0
 30
0.0
 70
8
  0
VERTEX
  8
06-Magenta
 10
120.0
 20
-494.0
 30
0.0
  0
VERTEX
  8
06-Magenta
 10
120.0
 20
-468.0
 30
0.0
  0
SEQEND
  0
POLYLINE
  8
06-Magenta
 66
1
 10
0.0
 20
0.0
 30
0.0
 70
8
  0
VERTEX
  8
06-Magenta
 10
342.0
 20
-758.0
 30
0.0
  0
VERTEX
  8
06-Magenta
 10
345.0
 20
-758.0
 30
0.0
  0
SEQEND
  0
POLYLINE
  8
06-Magenta
 66
1
 10
0.0
 20
0.0
 30
0.0
 70
8
  0
VERTEX
  8
06-Magenta
 10
248.0
 20
-345.0
 30
0.0
  0
VERTEX
  8
06-Magenta
 10
248.0
 20
-357.0
 30
0.0
  0
SEQEND
  0
POLYLINE
  8
06-Magenta
 66
1
 10
0.0
 20
0.0
 30
0.0
 70
8
  0
VERTEX
  8
06-Magenta
 10
203.0
 20
-220.0
 30
0.0
  0
VERTEX
  8
06-Magenta
 10
205.0
 20
-219.0
 30
0.0
  0
SEQEND
  0
POLYLINE
  8
06-Magenta
 66
1
 10
0.0
 20
0.0
 30
0.0
 70
8
  0
VERTEX
  8
06-Magenta
 10
145.0
 20
-422.0
 30
0.0
  0
VERTEX
  8
06-Magenta
 10
162.0
 20
-422.0
 30
0.0
  0
SEQEND
  0
POLYLINE
  8
06-Magenta
 66
1
 10
0.0
 20
0.0
 30
0.0
 70
8
  0
VERTEX
  8
06-Magenta
 10
219.0
 20
-210.0
 30
0.0
  0
VERTEX
  8
06-Magenta
 10
220.0
 20
-209.0
 30
0.0
  0
SEQEND
  0
POLYLINE
  8
06-Magenta
 66
1
 10
0.0
 20
0.0
 30
0.0
 70
8
  0
VERTEX
  8
06-Magenta
 10
204.0
 20
-361.0
 30
0.0
  0
VERTEX
  8
06-Magenta
 10
227.0
 20
-361.0
 30
0.0
  0
SEQEND
  0
POLYLINE
  8
06-Magenta
 66
1
 10
0.0
 20
0.0
 30
0.0
 70
8
  0
VERTEX
  8
06-Magenta
 10
158.0
 20
-632.0
 30
0.0
  0
VERTEX
  8
06-Magenta
 10
158.0
 20
-632.0
 30
0.0
  0
SEQEND
  0
POLYLINE
  8
06-Magenta
 66
1
 10
0.0
 20
0.0
 30
0.0
 70
8
  0
VERTEX
  8
06-Magenta
 10
119.0
 20
-694.0
 30
0.0
  0
VERTEX
  8
06-Magenta
 10
119.0
 20
-681.0
 30
0.0
  0
SEQEND
  0
POLYLINE
  8
06-Magenta
 66
1
 10
0.0
 20
0.0
 30
0.0
 70
8
  0
VERTEX
  8
06-Magenta
 10
232.0
 20
-202.0
 30
0.0
  0
VERTEX
  8
06-Magenta
 10
236.0
 20
-200.0
 30
0.0
  0
SEQEND
  0
POLYLINE
  8
06-Magenta
 66
1
 10
0.0
 20
0.0
 30
0.0
 70
8
  0
VERTEX
  8
06-Magenta
 10
370.0
 20
-759.0
 30
0.0
  0
VERTEX
  8
06-Magenta
 10
383.0
 20
-759.0
 30
0.0
  0
SEQEND
  0
POLYLINE
  8
06-Magenta
 66
1
 10
0.0
 20
0.0
 30
0.0
 70
8
  0
VERTEX
  8
06-Magenta
 10
340.0
 20
-778.0
 30
0.0
  0
VERTEX
  8
06-Magenta
 10
340.0
 20
-770.0
 30
0.0
  0
SEQEND
  0
POLYLINE
  8
06-Magenta
 66
1
 10
0.0
 20
0.0
 30
0.0
 70
8
  0
VERTEX
  8
06-Magenta
 10
273.0
 20
-178.0
 30
0.0
  0
VERTEX
  8
06-Magenta
 10
277.0
 20
-175.0
 30
0.0
  0
SEQEND
  0
POLYLINE
  8
06-Magenta
 66
1
 10
0.0
 20
0.0
 30
0.0
 70
8
  0
VERTEX
  8
06-Magenta
 10
240.0
 20
-251.0
 30
0.0
  0
VERTEX
  8
06-Magenta
 10
241.0
 20
-252.0
 30
0.0
  0
SEQEND
  0
POLYLINE
  8
06-Magenta
 66
1
 10
0.0
 20
0.0
 30
0.0
 70
8
  0
VERTEX
  8
06-Magenta
 10
285.0
 20
-750.0
 30
0.0
  0
VERTEX
  8
06-Magenta
 10
289.0
 20
-750.0
 30
0.0
  0
SEQEND
  0
POLYLINE
  8
06-Magenta
 66
1
 10
0.0
 20
0.0
 30
0.0
 70
8
  0
VERTEX
  8
06-Magenta
 10
246.0
 20
-330.0
 30
0.0
  0
VERTEX
  8
06-Magenta
 10
246.0
 20
-315.0
 30
0.0
  0
SEQEND
  0
POLYLINE
  8
06-Magenta
 66
1
 10
0.0
 20
0.0
 30
0.0
 70
8
  0
VERTEX
  8
06-Magenta
 10
633.0
 20
-553.0
 30
0.0
  0
VERTEX
  8
06-Magenta
 10
635.0
 20
-553.0
 30
0.0
  0
SEQEND
  0
POLYLINE
  8
06-Magenta
 66
1
 10
0.0
 20
0.0
 30
0.0
 70
8
  0
VERTEX
  8
06-Magenta
 10
163.0
 20
-742.0
 30
0.0
  0
VERTEX
  8
06-Magenta
 10
169.0
 20
-743.0
 30
0.0
  0
SEQEND
  0
POLYLINE
  8
06-Magenta
 66
1
 10
0.0
 20
0.0
 30
0.0
 70
8
  0
VERTEX
  8
06-Magenta
 10
118.0
 20
-730.0
 30
0.0
  0
VERTEX
  8
06-Magenta
 10
118.0
 20
-734.0
 30
0.0
  0
SEQEND
  0
POLYLINE
  8
06-Magenta
 66
1
 10
0.0
 20
0.0
 30
0.0
 70
8
  0
VERTEX
  8
06-Magenta
 10
165.0
 20
-242.0
 30
0.0
  0
VERTEX
  8
06-Magenta
 10
165.0
 20
-242.0
 30
0.0
  0
SEQEND
  0
POLYLINE
  8
06-Magenta
 66
1
 10
0.0
 20
0.0
 30
0.0
 70
8
  0
VERTEX
  8
06-Magenta
 10
243.0
 20
-361.0
 30
0.0
  0
VERTEX
  8
06-Magenta
 10
243.0
 20
-361.0
 30
0.0
  0
SEQEND
  0
POLYLINE
  8
06-Magenta
 66
1
 10
0.0
 20
0.0
 30
0.0
 70
8
  0
VERTEX
  8
06-Magenta
 10
121.0
 20
-557.0
 30
0.0
  0
VERTEX
  8
06-Magenta
 10
123.0
 20
-545.0
 30
0.0
  0
SEQEND
  0
POLYLINE
  8
06-Magenta
 66
1
 10
0.0
 20
0.0
 30
0.0
 70
8
  0
VERTEX
  8
06-Magenta
 10
450.0
 20
-758.0
 30
0.0
  0
VERTEX
  8
06-Magenta
 10
469.0
 20
-758.0
 30
0.0
  0
SEQEND
  0
POLYLINE
  8
06-Magenta
 66
1
 10
0.0
 20
0.0
 30
0.0
 70
8
  0
VERTEX
  8
06-Magenta
 10
247.0
 20
-338.0
 30
0.0
  0
VERTEX
  8
06-Magenta
 10
247.0
 20
-331.0
 30
0.0
  0
SEQEND
  0
POLYLINE
  8
06-Magenta
 66
1
 10
0.0
 20
0.0
 30
0.0
 70
8
  0
VERTEX
  8
06-Magenta
 10
123.0
 20
-299.0
 30
0.0
  0
VERTEX
  8
06-Magenta
 10
135.0
 20
-299.0
 30
0.0
  0
SEQEND
  0
POLYLINE
  8
06-Magenta
 66
1
 10
0.0
 20
0.0
 30
0.0
 70
8
  0
VERTEX
  8
06-Magenta
 10
156.0
 20
-247.0
 30
0.0
  0
VERTEX
  8
06-Magenta
 10
157.0
 20
-246.0
 30
0.0
  0
SEQEND
  0
POLYLINE
  8
06-Magenta
 66
1
 10
0.0
 20
0.0
 30
0.0
 70
8
  0
VERTEX
  8
06-Magenta
 10
618.0
 20
-552.0
 30
0.0
  0
VERTEX
  8
06-Magenta
 10
632.0
 20
-552.0
 30
0.0
  0
SEQEND
  0
POLYLINE
  8
06-Magenta
 66
1
 10
0.0
 20
0.0
 30
0.0
 70
8
  0
VERTEX
  8
06-Magenta
 10
120.0
 20
-428.0
 30
0.0
  0
VERTEX
  8
06-Magenta
 10
120.0
 20
-428.0
 30
0.0
  0
SEQEND
  0
POLYLINE
  8
06-Magenta
 66
1
 10
0.0
 20
0.0
 30
0.0
 70
8
  0
VERTEX
  8
06-Magenta
 10
273.0
 20
-749.0
 30
0.0
  0
VERTEX
  8
06-Magenta
 10
282.0
 20
-749.0
 30
0.0
  0
SEQEND
  0
POLYLINE
  8
06-Magenta
 66
1
 10
0.0
 20
0.0
 30
0.0
 70
8
  0
VERTEX
  8
06-Magenta
 10
635.0
 20
-649.0
 30
0.0
  0
VERTEX
  8
06-Magenta
 10
636.0
 20
-639.0
 30
0.0
  0
SEQEND
  0
POLYLINE
  8
06-Magenta
 66
1
 10
0.0
 20
0.0
 30
0.0
 70
8
  0
VERTEX
  8
06-Magenta
 10
321.0
 20
-754.0
 30
0.0
  0
VERTEX
  8
06-Magenta
 10
325.0
 20
-754.0
 30
0.0
  0
SEQEND
  0
POLYLINE
  8
06-Magenta
 66
1
 10
0.0
 20
0.0
 30
0.0
 70
8
  0
VERTEX
  8
06-Magenta
 10
549.0
 20
-770.0
 30
0.0
  0
VERTEX
  8
06-Magenta
 10
562.0
 20
-770.0
 30
0.0
  0
SEQEND
  0
POLYLINE
  8
06-Magenta
 66
1
 10
0.0
 20
0.0
 30
0.0
 70
8
  0
VERTEX
  8
06-Magenta
 10
120.0
 20
-424.0
 30
0.0
  0
VERTEX
  8
06-Magenta
 10
122.0
 20
-423.0
 30
0.0
  0
SEQEND
  0
POLYLINE
  8
06-Magenta
 66
1
 10
0.0
 20
0.0
 30
0.0
 70
8
  0
VERTEX
  8
06-Magenta
 10
121.0
 20
-588.0
 30
0.0
  0
VERTEX
  8
06-Magenta
 10
121.0
 20
-589.0
 30
0.0
  0
SEQEND
  0
POLYLINE
  8
06-Magenta
 66
1
 10
0.0
 20
0.0
 30
0.0
 70
8
  0
VERTEX
  8
06-Magenta
 10
243.0
 20
-256.0
 30
0.0
  0
VERTEX
  8
06-Magenta
 10
244.0
 20
-257.0
 30
0.0
  0
SEQEND
  0
POLYLINE
  8
06-Magenta
 66
1
 10
0.0
 20
0.0
 30
0.0
 70
8
  0
VERTEX
  8
06-Magenta
 10
293.0
 20
-750.0
 30
0.0
  0
VERTEX
  8
06-Magenta
 10
296.0
 20
-750.0
 30
0.0
  0
SEQEND
  0
POLYLINE
  8
06-Magenta
 66
1
 10
0.0
 20
0.0
 30
0.0
 70
8
  0
VERTEX
  8
06-Magenta
 10
149.0
 20
-741.0
 30
0.0
  0
VERTEX
  8
06-Magenta
 10
149.0
 20
-741.0
 30
0.0
  0
SEQEND
  0
POLYLINE
  8
06-Magenta
 66
1
 10
0.0
 20
0.0
 30
0.0
 70
8
  0
VERTEX
  8
06-Magenta
 10
398.0
 20
-758.0
 30
0.0
  0
VERTEX
  8
06-Magenta
 10
402.0
 20
-758.0
 30
0.0
  0
SEQEND
  0
POLYLINE
  8
06-Magenta
 66
1
 10
0.0
 20
0.0
 30
0.0
 70
8
  0
VERTEX
  8
06-Magenta
 10
633.0
 20
-738.0
 30
0.0
  0
VERTEX
  8
06-Magenta
 10
633.0
 20
-738.0
 30
0.0
  0
SEQEND
  0
POLYLINE
  8
06-Magenta
 66
1
 10
0.0
 20
0.0
 30
0.0
 70
8
  0
VERTEX
  8
06-Magenta
 10
633.0
 20
-739.0
 30
0.0
  0
VERTEX
  8
06-Magenta
 10
633.0
 20
-741.0
 30
0.0
  0
SEQEND
  0
POLYLINE
  8
06-Magenta
 66
1
 10
0.0
 20
0.0
 30
0.0
 70
8
  0
VERTEX
  8
06-Magenta
 10
411.0
 20
-758.0
 30
0.0
  0
VERTEX
  8
06-Magenta
 10
424.0
 20
-758.0
 30
0.0
  0
SEQEND
  0
POLYLINE
  8
06-Magenta
 66
1
 10
0.0
 20
0.0
 30
0.0
 70
8
  0
VERTEX
  8
06-Magenta
 10
117.0
 20
-719.0
 30
0.0
  0
VERTEX
  8
06-Magenta
 10
117.0
 20
-709.0
 30
0.0
  0
SEQEND
  0
POLYLINE
  8
06-Magenta
 66
1
 10
0.0
 20
0.0
 30
0.0
 70
8
  0
VERTEX
  8
06-Magenta
 10
125.0
 20
-265.0
 30
0.0
  0
VERTEX
  8
06-Magenta
 10
126.0
 20
-264.0
 30
0.0
  0
SEQEND
  0
POLYLINE
  8
06-Magenta
 66
1
 10
0.0
 20
0.0
 30
0.0
 70
8
  0
VERTEX
  8
06-Magenta
 10
201.0
 20
-221.0
 30
0.0
  0
VERTEX
  8
06-Magenta
 10
202.0
 20
-220.0
 30
0.0
  0
SEQEND
  0
POLYLINE
  8
06-Magenta
 66
1
 10
0.0
 20
0.0
 30
0.0
 70
8
  0
VERTEX
  8
06-Magenta
 10
120.0
 20
-624.0
 30
0.0
  0
VERTEX
  8
06-Magenta
 10
120.0
 20
-618.0
 30
0.0
  0
SEQEND
  0
POLYLINE
  8
06-Magenta
 66
1
 10
0.0
 20
0.0
 30
0.0
 70
8
  0
VERTEX
  8
06-Magenta
 10
601.0
 20
-774.0
 30
0.0
  0
VERTEX
  8
06-Magenta
 10
612.0
 20
-774.0
 30
0.0
  0
SEQEND
  0
POLYLINE
  8
06-Magenta
 66
1
 10
0.0
 20
0.0
 30
0.0
 70
8
  0
VERTEX
  8
06-Magenta
 10
166.0
 20
-242.0
 30
0.0
  0
VERTEX
  8
06-Magenta
 10
170.0
 20
-239.0
 30
0.0
  0
SEQEND
  0
POLYLINE
  8
06-Magenta
 66
1
 10
0.0
 20
0.0
 30
0.0
 70
8
  0
VERTEX
  8
06-Magenta
 10
120.0
 20
-363.0
 30
0.0
  0
VERTEX
  8
06-Magenta
 10
120.0
 20
-363.0
 30
0.0
  0
SEQEND
  0
POLYLINE
  8
06-Magenta
 66
1
 10
0.0
 20
0.0
 30
0.0
 70
8
  0
VERTEX
  8
06-Magenta
 10
122.0
 20
-294.0
 30
0.0
  0
VERTEX
  8
06-Magenta
 10
122.0
 20
-296.0
 30
0.0
  0
SEQEND
  0
POLYLINE
  8
06-Magenta
 66
1
 10
0.0
 20
0.0
 30
0.0
 70
8
  0
VERTEX
  8
06-Magenta
 10
186.0
 20
-229.0
 30
0.0
  0
VERTEX
  8
06-Magenta
 10
199.0
 20
-222.0
 30
0.0
  0
SEQEND
  0
POLYLINE
  8
06-Magenta
 66
1
 10
0.0
 20
0.0
 30
0.0
 70
8
  0
VERTEX
  8
06-Magenta
 10
608.0
 20
-552.0
 30
0.0
  0
VERTEX
  8
06-Magenta
 10
613.0
 20
-552.0
 30
0.0
  0
SEQEND
  0
POLYLINE
  8
06-Magenta
 66
1
 10
0.0
 20
0.0
 30
0.0
 70
8
  0
VERTEX
  8
06-Magenta
 10
291.0
 20
-168.0
 30
0.0
  0
VERTEX
  8
06-Magenta
 10
292.0
 20
-167.0
 30
0.0
  0
SEQEND
  0
POLYLINE
  8
06-Magenta
 66
1
 10
0.0
 20
0.0
 30
0.0
 70
8
  0
VERTEX
  8
06-Magenta
 10
228.0
 20
-361.0
 30
0.0
  0
VERTEX
  8
06-Magenta
 10
242.0
 20
-361.0
 30
0.0
  0
SEQEND
  0
POLYLINE
  8
06-Magenta
 66
1
 10
0.0
 20
0.0
 30
0.0
 70
8
  0
VERTEX
  8
06-Magenta
 10
180.0
 20
-360.0
 30
0.0
  0
VERTEX
  8
06-Magenta
 10
191.0
 20
-360.0
 30
0.0
  0
SEQEND
  0
POLYLINE
  8
06-Magenta
 66
1
 10
0.0
 20
0.0
 30
0.0
 70
8
  0
VERTEX
  8
06-Magenta
 10
126.0
 20
-423.0
 30
0.0
  0
VERTEX
  8
06-Magenta
 10
131.0
 20
-423.0
 30
0.0
  0
SEQEND
  0
POLYLINE
  8
06-Magenta
 66
1
 10
0.0
 20
0.0
 30
0.0
 70
8
  0
VERTEX
  8
06-Magenta
 10
627.0
 20
-774.0
 30
0.0
  0
VERTEX
  8
06-Magenta
 10
627.0
 20
-774.0
 30
0.0
  0
SEQEND
  0
POLYLINE
  8
06-Magenta
 66
1
 10
0.0
 20
0.0
 30
0.0
 70
8
  0
VERTEX
  8
06-Magenta
 10
121.0
 20
-611.0
 30
0.0
  0
VERTEX
  8
06-Magenta
 10
122.0
 20
-590.0
 30
0.0
  0
SEQEND
  0
POLYLINE
  8
06-Magenta
 66
1
 10
0.0
 20
0.0
 30
0.0
 70
8
  0
VERTEX
  8
06-Magenta
 10
633.0
 20
-735.0
 30
0.0
  0
VERTEX
  8
06-Magenta
 10
633.0
 20
-731.0
 30
0.0
  0
SEQEND
  0
POLYLINE
  8
06-Magenta
 66
1
 10
0.0
 20
0.0
 30
0.0
 70
8
  0
VERTEX
  8
06-Magenta
 10
128.0
 20
-636.0
 30
0.0
  0
VERTEX
  8
06-Magenta
 10
133.0
 20
-636.0
 30
0.0
  0
SEQEND
  0
POLYLINE
  8
06-Magenta
 66
1
 10
0.0
 20
0.0
 30
0.0
 70
8
  0
VERTEX
  8
06-Magenta
 10
223.0
 20
-228.0
 30
0.0
  0
VERTEX
  8
06-Magenta
 10
228.0
 20
-234.0
 30
0.0
  0
SEQEND
  0
POLYLINE
  8
06-Magenta
 66
1
 10
0.0
 20
0.0
 30
0.0
 70
8
  0
VERTEX
  8
06-Magenta
 10
637.0
 20
-592.0
 30
0.0
  0
VERTEX
  8
06-Magenta
 10
637.0
 20
-585.0
 30
0.0
  0
SEQEND
  0
POLYLINE
  8
06-Magenta
 66
1
 10
0.0
 20
0.0
 30
0.0
 70
8
  0
VERTEX
  8
06-Magenta
 10
207.0
 20
-219.0
 30
0.0
  0
VERTEX
  8
06-Magenta
 10
209.0
 20
-218.0
 30
0.0
  0
SEQEND
  0
POLYLINE
  8
06-Magenta
 66
1
 10
0.0
 20
0.0
 30
0.0
 70
8
  0
VERTEX
  8
06-Magenta
 10
121.0
 20
-357.0
 30
0.0
  0
VERTEX
  8
06-Magenta
 10
141.0
 20
-357.0
 30
0.0
  0
SEQEND
  0
POLYLINE
  8
06-Magenta
 66
1
 10
0.0
 20
0.0
 30
0.0
 70
8
  0
VERTEX
  8
06-Magenta
 10
119.0
 20
-420.0
 30
0.0
  0
VERTEX
  8
06-Magenta
 10
119.0
 20
-420.0
 30
0.0
  0
SEQEND
  0
POLYLINE
  8
06-Magenta
 66
1
 10
0.0
 20
0.0
 30
0.0
 70
8
  0
VERTEX
  8
06-Magenta
 10
638.0
 20
-564.0
 30
0.0
  0
VERTEX
  8
06-Magenta
 10
638.0
 20
-556.0
 30
0.0
  0
SEQEND
  0
POLYLINE
  8
06-Magenta
 66
1
 10
0.0
 20
0.0
 30
0.0
 70
8
  0
VERTEX
  8
06-Magenta
 10
248.0
 20
-344.0
 30
0.0
  0
VERTEX
  8
06-Magenta
 10
248.0
 20
-339.0
 30
0.0
  0
SEQEND
  0
POLYLINE
  8
06-Magenta
 66
1
 10
0.0
 20
0.0
 30
0.0
 70
8
  0
VERTEX
  8
06-Magenta
 10
638.0
 20
-575.0
 30
0.0
  0
VERTEX
  8
06-Magenta
 10
639.0
 20
-566.0
 30
0.0
  0
SEQEND
  0
POLYLINE
  8
06-Magenta
 66
1
 10
0.0
 20
0.0
 30
0.0
 70
8
  0
VERTEX
  8
06-Magenta
 10
513.0
 20
-766.0
 30
0.0
  0
VERTEX
  8
06-Magenta
 10
518.0
 20
-766.0
 30
0.0
  0
SEQEND
  0
POLYLINE
  8
06-Magenta
 66
1
 10
0.0
 20
0.0
 30
0.0
 70
8
  0
VERTEX
  8
06-Magenta
 10
122.0
 20
-737.0
 30
0.0
  0
VERTEX
  8
06-Magenta
 10
132.0
 20
-737.0
 30
0.0
  0
SEQEND
  0
POLYLINE
  8
06-Magenta
 66
1
 10
0.0
 20
0.0
 30
0.0
 70
8
  0
VERTEX
  8
06-Magenta
 10
150.0
 20
-741.0
 30
0.0
  0
VERTEX
  8
06-Magenta
 10
162.0
 20
-741.0
 30
0.0
  0
SEQEND
  0
POLYLINE
  8
06-Magenta
 66
1
 10
0.0
 20
0.0
 30
0.0
 70
8
  0
VERTEX
  8
06-Magenta
 10
248.0
 20
-194.0
 30
0.0
  0
VERTEX
  8
06-Magenta
 10
249.0
 20
-193.0
 30
0.0
  0
SEQEND
  0
POLYLINE
  8
06-Magenta
 66
1
 10
0.0
 20
0.0
 30
0.0
 70
8
  0
VERTEX
  8
06-Magenta
 10
305.0
 20
-159.0
 30
0.0
  0
VERTEX
  8
06-Magenta
 10
307.0
 20
-158.0
 30
0.0
  0
SEQEND
  0
POLYLINE
  8
06-Magenta
 66
1
 10
0.0
 20
0.0
 30
0.0
 70
8
  0
VERTEX
  8
06-Magenta
 10
317.0
 20
-753.0
 30
0.0
  0
VERTEX
  8
06-Magenta
 10
317.0
 20
-753.0
 30
0.0
  0
SEQEND
  0
POLYLINE
  8
06-Magenta
 66
1
 10
0.0
 20
0.0
 30
0.0
 70
8
  0
VERTEX
  8
06-Magenta
 10
297.0
 20
-751.0
 30
0.0
  0
VERTEX
  8
06-Magenta
 10
303.0
 20
-751.0
 30
0.0
  0
SEQEND
  0
POLYLINE
  8
06-Magenta
 66
1
 10
0.0
 20
0.0
 30
0.0
 70
8
  0
VERTEX
  8
06-Magenta
 10
505.0
 20
-765.0
 30
0.0
  0
VERTEX
  8
06-Magenta
 10
512.0
 20
-765.0
 30
0.0
  0
SEQEND
  0
POLYLINE
  8
06-Magenta
 66
1
 10
0.0
 20
0.0
 30
0.0
 70
8
  0
VERTEX
  8
06-Magenta
 10
339.0
 20
-779.0
 30
0.0
  0
VERTEX
  8
06-Magenta
 10
339.0
 20
-785.0
 30
0.0
  0
SEQEND
  0
POLYLINE
  8
06-Magenta
 66
1
 10
0.0
 20
0.0
 30
0.0
 70
8
  0
VERTEX
  8
06-Magenta
 10
267.0
 20
-182.0
 30
0.0
  0
VERTEX
  8
06-Magenta
 10
272.0
 20
-178.0
 30
0.0
  0
SEQEND
  0
POLYLINE
  8
06-Magenta
 66
1
 10
0.0
 20
0.0
 30
0.0
 70
8
  0
VERTEX
  8
06-Magenta
 10
314.0
 20
-752.0
 30
0.0
  0
VERTEX
  8
06-Magenta
 10
314.0
 20
-752.0
 30
0.0
  0
SEQEND
  0
POLYLINE
  8
06-Magenta
 66
1
 10
0.0
 20
0.0
 30
0.0
 70
8
  0
VERTEX
  8
06-Magenta
 10
483.0
 20
-761.0
 30
0.0
  0
VERTEX
  8
06-Magenta
 10
492.0
 20
-761.0
 30
0.0
  0
SEQEND
  0
POLYLINE
  8
06-Magenta
 66
1
 10
0.0
 20
0.0
 30
0.0
 70
8
  0
VERTEX
  8
06-Magenta
 10
167.0
 20
-426.0
 30
0.0
  0
VERTEX
  8
06-Magenta
 10
167.0
 20
-426.0
 30
0.0
  0
SEQEND
  0
POLYLINE
  8
06-Magenta
 66
1
 10
0.0
 20
0.0
 30
0.0
 70
8
  0
VERTEX
  8
06-Magenta
 10
120.0
 20
-639.0
 30
0.0
  0
VERTEX
  8
06-Magenta
 10
121.0
 20
-637.0
 30
0.0
  0
SEQEND
  0
POLYLINE
  8
06-Magenta
 66
1
 10
0.0
 20
0.0
 30
0.0
 70
8
  0
VERTEX
  8
06-Magenta
 10
118.0
 20
-699.0
 30
0.0
  0
VERTEX
  8
06-Magenta
 10
118.0
 20
-708.0
 30
0.0
  0
SEQEND
  0
POLYLINE
  8
06-Magenta
 66
1
 10
0.0
 20
0.0
 30
0.0
 70
8
  0
VERTEX
  8
06-Magenta
 10
121.0
 20
-632.0
 30
0.0
  0
VERTEX
  8
06-Magenta
 10
122.0
 20
-636.0
 30
0.0
  0
SEQEND
  0
POLYLINE
  8
06-Magenta
 66
1
 10
0.0
 20
0.0
 30
0.0
 70
8
  0
VERTEX
  8
06-Magenta
 10
175.0
 20
-234.0
 30
0.0
  0
VERTEX
  8
06-Magenta
 10
176.0
 20
-234.0
 30
0.0
  0
SEQEND
  0
POLYLINE
  8
06-Magenta
 66
1
 10
0.0
 20
0.0
 30
0.0
 70
8
  0
VERTEX
  8
06-Magenta
 10
242.0
 20
-255.0
 30
0.0
  0
VERTEX
  8
06-Magenta
 10
242.0
 20
-255.0
 30
0.0
  0
SEQEND
  0
POLYLINE
  8
06-Magenta
 66
1
 10
0.0
 20
0.0
 30
0.0
 70
8
  0
VERTEX
  8
06-Magenta
 10
170.0
 20
-743.0
 30
0.0
  0
VERTEX
  8
06-Magenta
 10
178.0
 20
-743.0
 30
0.0
  0
SEQEND
  0
POLYLINE
  8
06-Magenta
 66
1
 10
0.0
 20
0.0
 30
0.0
 70
8
  0
VERTEX
  8
06-Magenta
 10
121.0
 20
-523.0
 30
0.0
  0
VERTEX
  8
06-Magenta
 10
121.0
 20
-517.0
 30
0.0
  0
SEQEND
  0
POLYLINE
  8
06-Magenta
 66
1
 10
0.0
 20
0.0
 30
0.0
 70
8
  0
VERTEX
  8
06-Magenta
 10
185.0
 20
-744.0
 30
0.0
  0
VERTEX
  8
06-Magenta
 10
190.0
 20
-744.0
 30
0.0
  0
SEQEND
  0
POLYLINE
  8
06-Magenta
 66
1
 10
0.0
 20
0.0
 30
0.0
 70
8
  0
VERTEX
  8
06-Magenta
 10
176.0
 20
-359.0
 30
0.0
  0
VERTEX
  8
06-Magenta
 10
179.0
 20
-359.0
 30
0.0
  0
SEQEND
  0
POLYLINE
  8
06-Magenta
 66
1
 10
0.0
 20
0.0
 30
0.0
 70
8
  0
VERTEX
  8
06-Magenta
 10
240.0
 20
-747.0
 30
0.0
  0
VERTEX
  8
06-Magenta
 10
248.0
 20
-747.0
 30
0.0
  0
SEQEND
  0
POLYLINE
  8
06-Magenta
 66
1
 10
0.0
 20
0.0
 30
0.0
 70
8
  0
VERTEX
  8
06-Magenta
 10
141.0
 20
-256.0
 30
0.0
  0
VERTEX
  8
06-Magenta
 10
147.0
 20
-252.0
 30
0.0
  0
SEQEND
  0
POLYLINE
  8
06-Magenta
 66
1
 10
0.0
 20
0.0
 30
0.0
 70
8
  0
VERTEX
  8
06-Magenta
 10
636.0
 20
-600.0
 30
0.0
  0
VERTEX
  8
06-Magenta
 10
636.0
 20
-595.0
 30
0.0
  0
SEQEND
  0
POLYLINE
  8
06-Magenta
 66
1
 10
0.0
 20
0.0
 30
0.0
 70
8
  0
VERTEX
  8
06-Magenta
 10
119.0
 20
-640.0
 30
0.0
  0
VERTEX
  8
06-Magenta
 10
119.0
 20
-644.0
 30
0.0
  0
SEQEND
  0
POLYLINE
  8
06-Magenta
 66
1
 10
0.0
 20
0.0
 30
0.0
 70
8
  0
VERTEX
  8
06-Magenta
 10
231.0
 20
-238.0
 30
0.0
  0
VERTEX
  8
06-Magenta
 10
232.0
 20
-239.0
 30
0.0
  0
SEQEND
  0
POLYLINE
  8
06-Magenta
 66
1
 10
0.0
 20
0.0
 30
0.0
 70
8
  0
VERTEX
  8
06-Magenta
 10
120.0
 20
-467.0
 30
0.0
  0
VERTEX
  8
06-Magenta
 10
120.0
 20
-466.0
 30
0.0
  0
SEQEND
  0
POLYLINE
  8
06-Magenta
 66
1
 10
0.0
 20
0.0
 30
0.0
 70
8
  0
VERTEX
  8
06-Magenta
 10
139.0
 20
-422.0
 30
0.0
  0
VERTEX
  8
06-Magenta
 10
142.0
 20
-422.0
 30
0.0
  0
SEQEND
  0
POLYLINE
  8
06-Magenta
 66
1
 10
0.0
 20
0.0
 30
0.0
 70
8
  0
VERTEX
  8
06-Magenta
 10
122.0
 20
-301.0
 30
0.0
  0
VERTEX
  8
06-Magenta
 10
122.0
 20
-301.0
 30
0.0
  0
SEQEND
  0
POLYLINE
  8
06-Magenta
 66
1
 10
0.0
 20
0.0
 30
0.0
 70
8
  0
VERTEX
  8
06-Magenta
 10
637.0
 20
-555.0
 30
0.0
  0
VERTEX
  8
06-Magenta
 10
637.0
 20
-555.0
 30
0.0
  0
SEQEND
  0
POLYLINE
  8
06-Magenta
 66
1
 10
0.0
 20
0.0
 30
0.0
 70
8
  0
VERTEX
  8
06-Magenta
 10
179.0
 20
-232.0
 30
0.0
  0
VERTEX
  8
06-Magenta
 10
181.0
 20
-231.0
 30
0.0
  0
SEQEND
  0
POLYLINE
  8
06-Magenta
 66
1
 10
0.0
 20
0.0
 30
0.0
 70
8
  0
VERTEX
  8
06-Magenta
 10
134.0
 20
-259.0
 30
0.0
  0
VERTEX
  8
06-Magenta
 10
136.0
 20
-258.0
 30
0.0
  0
SEQEND
  0
POLYLINE
  8
06-Magenta
 66
1
 10
0.0
 20
0.0
 30
0.0
 70
8
  0
VERTEX
  8
06-Magenta
 10
613.0
 20
-775.0
 30
0.0
  0
VERTEX
  8
06-Magenta
 10
626.0
 20
-775.0
 30
0.0
  0
SEQEND
  0
POLYLINE
  8
06-Magenta
 66
1
 10
0.0
 20
0.0
 30
0.0
 70
8
  0
VERTEX
  8
06-Magenta
 10
121.0
 20
-614.0
 30
0.0
  0
VERTEX
  8
06-Magenta
 10
121.0
 20
-614.0
 30
0.0
  0
SEQEND
  0
POLYLINE
  8
06-Magenta
 66
1
 10
0.0
 20
0.0
 30
0.0
 70
8
  0
VERTEX
  8
06-Magenta
 10
141.0
 20
-634.0
 30
0.0
  0
VERTEX
  8
06-Magenta
 10
153.0
 20
-634.0
 30
0.0
  0
SEQEND
  0
POLYLINE
  8
06-Magenta
 66
1
 10
0.0
 20
0.0
 30
0.0
 70
8
  0
VERTEX
  8
06-Magenta
 10
120.0
 20
-274.0
 30
0.0
  0
VERTEX
  8
06-Magenta
 10
120.0
 20
-287.0
 30
0.0
  0
SEQEND
  0
POLYLINE
  8
06-Magenta
 66
1
 10
0.0
 20
0.0
 30
0.0
 70
8
  0
VERTEX
  8
06-Magenta
 10
304.0
 20
-752.0
 30
0.0
  0
VERTEX
  8
06-Magenta
 10
310.0
 20
-752.0
 30
0.0
  0
SEQEND
  0
POLYLINE
  8
06-Magenta
 66
1
 10
0.0
 20
0.0
 30
0.0
 70
8
  0
VERTEX
  8
06-Magenta
 10
251.0
 20
-191.0
 30
0.0
  0
VERTEX
  8
06-Magenta
 10
258.0
 20
-187.0
 30
0.0
  0
SEQEND
  0
POLYLINE
  8
06-Magenta
 66
1
 10
0.0
 20
0.0
 30
0.0
 70
8
  0
VERTEX
  8
06-Magenta
 10
341.0
 20
-763.0
 30
0.0
  0
VERTEX
  8
06-Magenta
 10
342.0
 20
-759.0
 30
0.0
  0
SEQEND
  0
POLYLINE
  8
06-Magenta
 66
1
 10
0.0
 20
0.0
 30
0.0
 70
8
  0
VERTEX
  8
06-Magenta
 10
121.0
 20
-288.0
 30
0.0
  0
VERTEX
  8
06-Magenta
 10
121.0
 20
-292.0
 30
0.0
  0
SEQEND
  0
POLYLINE
  8
06-Magenta
 66
1
 10
0.0
 20
0.0
 30
0.0
 70
8
  0
VERTEX
  8
06-Magenta
 10
299.0
 20
-163.0
 30
0.0
  0
VERTEX
  8
06-Magenta
 10
300.0
 20
-162.0
 30
0.0
  0
SEQEND
  0
POLYLINE
  8
06-Magenta
 66
1
 10
0.0
 20
0.0
 30
0.0
 70
8
  0
VERTEX
  8
06-Magenta
 10
638.0
 20
-576.0
 30
0.0
  0
VERTEX
  8
06-Magenta
 10
638.0
 20
-584.0
 30
0.0
  0
SEQEND
  0
POLYLINE
  8
06-Magenta
 66
1
 10
0.0
 20
0.0
 30
0.0
 70
8
  0
VERTEX
  8
06-Magenta
 10
239.0
 20
-199.0
 30
0.0
  0
VERTEX
  8
06-Magenta
 10
240.0
 20
-198.0
 30
0.0
  0
SEQEND
  0
POLYLINE
  8
06-Magenta
 66
1
 10
0.0
 20
0.0
 30
0.0
 70
8
  0
VERTEX
  8
06-Magenta
 10
226.0
 20
-206.0
 30
0.0
  0
VERTEX
  8
06-Magenta
 10
228.0
 20
-204.0
 30
0.0
  0
SEQEND
  0
POLYLINE
  8
06-Magenta
 66
1
 10
0.0
 20
0.0
 30
0.0
 70
8
  0
VERTEX
  8
06-Magenta
 10
329.0
 20
-755.0
 30
0.0
  0
VERTEX
  8
06-Magenta
 10
332.0
 20
-755.0
 30
0.0
  0
SEQEND
  0
POLYLINE
  8
06-Magenta
 66
1
 10
0.0
 20
0.0
 30
0.0
 70
8
  0
VERTEX
  8
06-Magenta
 10
237.0
 20
-247.0
 30
0.0
  0
VERTEX
  8
06-Magenta
 10
239.0
 20
-250.0
 30
0.0
  0
SEQEND
  0
POLYLINE
  8
06-Magenta
 66
1
 10
0.0
 20
0.0
 30
0.0
 70
8
  0
VERTEX
  8
06-Magenta
 10
266.0
 20
-183.0
 30
0.0
  0
VERTEX
  8
06-Magenta
 10
266.0
 20
-183.0
 30
0.0
  0
SEQEND
  0
POLYLINE
  8
06-Magenta
 66
1
 10
0.0
 20
0.0
 30
0.0
 70
8
  0
VERTEX
  8
06-Magenta
 10
318.0
 20
-753.0
 30
0.0
  0
VERTEX
  8
06-Magenta
 10
320.0
 20
-753.0
 30
0.0
  0
SEQEND
  0
POLYLINE
  8
06-Magenta
 66
1
 10
0.0
 20
0.0
 30
0.0
 70
8
  0
VERTEX
  8
06-Magenta
 10
132.0
 20
-422.0
 30
0.0
  0
VERTEX
  8
06-Magenta
 10
138.0
 20
-422.0
 30
0.0
  0
SEQEND
  0
POLYLINE
  8
06-Magenta
 66
1
 10
0.0
 20
0.0
 30
0.0
 70
8
  0
VERTEX
  8
06-Magenta
 10
634.0
 20
-730.0
 30
0.0
  0
VERTEX
  8
06-Magenta
 10
634.0
 20
-718.0
 30
0.0
  0
SEQEND
  0
POLYLINE
  8
06-Magenta
 66
1
 10
0.0
 20
0.0
 30
0.0
 70
8
  0
VERTEX
  8
06-Magenta
 10
155.0
 20
-247.0
 30
0.0
  0
VERTEX
  8
06-Magenta
 10
155.0
 20
-247.0
 30
0.0
  0
SEQEND
  0
POLYLINE
  8
06-Magenta
 66
1
 10
0.0
 20
0.0
 30
0.0
 70
8
  0
VERTEX
  8
06-Magenta
 10
217.0
 20
-214.0
 30
0.0
  0
VERTEX
  8
06-Magenta
 10
217.0
 20
-215.0
 30
0.0
  0
SEQEND
  0
POLYLINE
  8
06-Magenta
 66
1
 10
0.0
 20
0.0
 30
0.0
 70
8
  0
VERTEX
  8
06-Magenta
 10
120.0
 20
-362.0
 30
0.0
  0
VERTEX
  8
06-Magenta
 10
120.0
 20
-362.0
 30
0.0
  0
SEQEND
  0
POLYLINE
  8
06-Magenta
 66
1
 10
0.0
 20
0.0
 30
0.0
 70
8
  0
VERTEX
  8
06-Magenta
 10
357.0
 20
-758.0
 30
0.0
  0
VERTEX
  8
06-Magenta
 10
360.0
 20
-758.0
 30
0.0
  0
SEQEND
  0
POLYLINE
  8
06-Magenta
 66
1
 10
0.0
 20
0.0
 30
0.0
 70
8
  0
VERTEX
  8
06-Magenta
 10
127.0
 20
-264.0
 30
0.0
  0
VERTEX
  8
06-Magenta
 10
129.0
 20
-262.0
 30
0.0
  0
SEQEND
  0
POLYLINE
  8
06-Magenta
 66
1
 10
0.0
 20
0.0
 30
0.0
 70
8
  0
VERTEX
  8
06-Magenta
 10
302.0
 20
-161.0
 30
0.0
  0
VERTEX
  8
06-Magenta
 10
304.0
 20
-159.0
 30
0.0
  0
SEQEND
  0
POLYLINE
  8
06-Magenta
 66
1
 10
0.0
 20
0.0
 30
0.0
 70
8
  0
VERTEX
  8
06-Magenta
 10
121.0
 20
-305.0
 30
0.0
  0
VERTEX
  8
06-Magenta
 10
122.0
 20
-302.0
 30
0.0
  0
SEQEND
  0
POLYLINE
  8
06-Magenta
 66
1
 10
0.0
 20
0.0
 30
0.0
 70
8
  0
VERTEX
  8
06-Magenta
 10
124.0
 20
-636.0
 30
0.0
  0
VERTEX
  8
06-Magenta
 10
124.0
 20
-636.0
 30
0.0
  0
SEQEND
  0
POLYLINE
  8
06-Magenta
 66
1
 10
0.0
 20
0.0
 30
0.0
 70
8
  0
VERTEX
  8
06-Magenta
 10
165.0
 20
-424.0
 30
0.0
  0
VERTEX
  8
06-Magenta
 10
166.0
 20
-425.0
 30
0.0
  0
SEQEND
  0
POLYLINE
  8
06-Magenta
 66
1
 10
0.0
 20
0.0
 30
0.0
 70
8
  0
VERTEX
  8
06-Magenta
 10
121.0
 20
-268.0
 30
0.0
  0
VERTEX
  8
06-Magenta
 10
124.0
 20
-266.0
 30
0.0
  0
SEQEND
  0
POLYLINE
  8
06-Magenta
 66
1
 10
0.0
 20
0.0
 30
0.0
 70
8
  0
VERTEX
  8
06-Magenta
 10
285.0
 20
-172.0
 30
0.0
  0
VERTEX
  8
06-Magenta
 10
287.0
 20
-170.0
 30
0.0
  0
SEQEND
  0
POLYLINE
  8
06-Magenta
 66
1
 10
0.0
 20
0.0
 30
0.0
 70
8
  0
VERTEX
  8
06-Magenta
 10
334.0
 20
-754.0
 30
0.0
  0
VERTEX
  8
06-Magenta
 10
335.0
 20
-755.0
 30
0.0
  0
SEQEND
  0
POLYLINE
  8
06-Magenta
 66
1
 10
0.0
 20
0.0
 30
0.0
 70
8
  0
VERTEX
  8
06-Magenta
 10
117.0
 20
-720.0
 30
0.0
  0
VERTEX
  8
06-Magenta
 10
117.0
 20
-724.0
 30
0.0
  0
SEQEND
  0
POLYLINE
  8
06-Magenta
 66
1
 10
0.0
 20
0.0
 30
0.0
 70
8
  0
VERTEX
  8
06-Magenta
 10
217.0
 20
-218.0
 30
0.0
  0
VERTEX
  8
06-Magenta
 10
219.0
 20
-224.0
 30
0.0
  0
SEQEND
  0
POLYLINE
  8
06-Magenta
 66
1
 10
0.0
 20
0.0
 30
0.0
 70
8
  0
VERTEX
  8
06-Magenta
 10
219.0
 20
-211.0
 30
0.0
  0
VERTEX
  8
06-Magenta
 10
219.0
 20
-211.0
 30
0.0
  0
SEQEND
  0
POLYLINE
  8
06-Magenta
 66
1
 10
0.0
 20
0.0
 30
0.0
 70
8
  0
VERTEX
  8
06-Magenta
 10
403.0
 20
-757.0
 30
0.0
  0
VERTEX
  8
06-Magenta
 10
410.0
 20
-757.0
 30
0.0
  0
SEQEND
  0
POLYLINE
  8
06-Magenta
 66
1
 10
0.0
 20
0.0
 30
0.0
 70
8
  0
VERTEX
  8
06-Magenta
 10
597.0
 20
-773.0
 30
0.0
  0
VERTEX
  8
06-Magenta
 10
600.0
 20
-773.0
 30
0.0
  0
SEQEND
  0
POLYLINE
  8
06-Magenta
 66
1
 10
0.0
 20
0.0
 30
0.0
 70
8
  0
VERTEX
  8
06-Magenta
 10
121.0
 20
-356.0
 30
0.0
  0
VERTEX
  8
06-Magenta
 10
121.0
 20
-355.0
 30
0.0
  0
SEQEND
  0
POLYLINE
  8
06-Magenta
 66
1
 10
0.0
 20
0.0
 30
0.0
 70
8
  0
VERTEX
  8
06-Magenta
 10
636.0
 20
-689.0
 30
0.0
  0
VERTEX
  8
06-Magenta
 10
636.0
 20
-689.0
 30
0.0
  0
SEQEND
  0
POLYLINE
  8
06-Magenta
 66
1
 10
0.0
 20
0.0
 30
0.0
 70
8
  0
VERTEX
  8
06-Magenta
 10
294.0
 20
-166.0
 30
0.0
  0
VERTEX
  8
06-Magenta
 10
296.0
 20
-164.0
 30
0.0
  0
SEQEND
  0
POLYLINE
  8
06-Magenta
 66
1
 10
0.0
 20
0.0
 30
0.0
 70
8
  0
VERTEX
  8
06-Magenta
 10
118.0
 20
-674.0
 30
0.0
  0
VERTEX
  8
06-Magenta
 10
118.0
 20
-680.0
 30
0.0
  0
SEQEND
  0
POLYLINE
  8
06-Magenta
 66
1
 10
0.0
 20
0.0
 30
0.0
 70
8
  0
VERTEX
  8
06-Magenta
 10
361.0
 20
-758.0
 30
0.0
  0
VERTEX
  8
06-Magenta
 10
364.0
 20
-758.0
 30
0.0
  0
SEQEND
  0
POLYLINE
  8
06-Magenta
 66
1
 10
0.0
 20
0.0
 30
0.0
 70
8
  0
VERTEX
  8
06-Magenta
 10
120.0
 20
-629.0
 30
0.0
  0
VERTEX
  8
06-Magenta
 10
120.0
 20
-625.0
 30
0.0
  0
SEQEND
  0
POLYLINE
  8
06-Magenta
 66
1
 10
0.0
 20
0.0
 30
0.0
 70
8
  0
VERTEX
  8
06-Magenta
 10
614.0
 20
-551.0
 30
0.0
  0
VERTEX
  8
06-Magenta
 10
617.0
 20
-551.0
 30
0.0
  0
SEQEND
  0
POLYLINE
  8
06-Magenta
 66
1
 10
0.0
 20
0.0
 30
0.0
 70
8
  0
VERTEX
  8
06-Magenta
 10
241.0
 20
-197.0
 30
0.0
  0
VERTEX
  8
06-Magenta
 10
243.0
 20
-196.0
 30
0.0
  0
SEQEND
  0
POLYLINE
  8
06-Magenta
 66
1
 10
0.0
 20
0.0
 30
0.0
 70
8
  0
VERTEX
  8
06-Magenta
 10
163.0
 20
-358.0
 30
0.0
  0
VERTEX
  8
06-Magenta
 10
164.0
 20
-357.0
 30
0.0
  0
SEQEND
  0
POLYLINE
  8
06-Magenta
 66
1
 10
0.0
 20
0.0
 30
0.0
 70
8
  0
VERTEX
  8
06-Magenta
 10
122.0
 20
-544.0
 30
0.0
  0
VERTEX
  8
06-Magenta
 10
122.0
 20
-539.0
 30
0.0
  0
SEQEND
  0
POLYLINE
  8
06-Magenta
 66
1
 10
0.0
 20
0.0
 30
0.0
 70
8
  0
VERTEX
  8
06-Magenta
 10
117.0
 20
-729.0
 30
0.0
  0
VERTEX
  8
06-Magenta
 10
117.0
 20
-725.0
 30
0.0
  0
SEQEND
  0
POLYLINE
  8
06-Magenta
 66
1
 10
0.0
 20
0.0
 30
0.0
 70
8
  0
VERTEX
  8
06-Magenta
 10
221.0
 20
-226.0
 30
0.0
  0
VERTEX
  8
06-Magenta
 10
221.0
 20
-226.0
 30
0.0
  0
SEQEND
  0
POLYLINE
  8
06-Magenta
 66
1
 10
0.0
 20
0.0
 30
0.0
 70
8
  0
VERTEX
  8
06-Magenta
 10
629.0
 20
-773.0
 30
0.0
  0
VERTEX
  8
06-Magenta
 10
629.0
 20
-773.0
 30
0.0
  0
SEQEND
  0
POLYLINE
  8
06-Magenta
 66
1
 10
0.0
 20
0.0
 30
0.0
 70
8
  0
VERTEX
  8
06-Magenta
 10
165.0
 20
-357.0
 30
0.0
  0
VERTEX
  8
06-Magenta
 10
166.0
 20
-357.0
 30
0.0
  0
SEQEND
  0
POLYLINE
  8
06-Magenta
 66
1
 10
0.0
 20
0.0
 30
0.0
 70
8
  0
VERTEX
  8
06-Magenta
 10
121.0
 20
-616.0
 30
0.0
  0
VERTEX
  8
06-Magenta
 10
121.0
 20
-616.0
 30
0.0
  0
SEQEND
  0
POLYLINE
  8
06-Magenta
 66
1
 10
0.0
 20
0.0
 30
0.0
 70
8
  0
VERTEX
  8
06-Magenta
 10
124.0
 20
-423.0
 30
0.0
  0
VERTEX
  8
06-Magenta
 10
124.0
 20
-423.0
 30
0.0
  0
SEQEND
  0
POLYLINE
  8
06-Magenta
 66
1
 10
0.0
 20
0.0
 30
0.0
 70
8
  0
VERTEX
  8
06-Magenta
 10
235.0
 20
-245.0
 30
0.0
  0
VERTEX
  8
06-Magenta
 10
236.0
 20
-246.0
 30
0.0
  0
SEQEND
  0
POLYLINE
  8
06-Magenta
 66
1
 10
0.0
 20
0.0
 30
0.0
 70
8
  0
VERTEX
  8
06-Magenta
 10
635.0
 20
-601.0
 30
0.0
  0
VERTEX
  8
06-Magenta
 10
635.0
 20
-601.0
 30
0.0
  0
SEQEND
  0
POLYLINE
  8
06-Magenta
 66
1
 10
0.0
 20
0.0
 30
0.0
 70
8
  0
VERTEX
  8
06-Magenta
 10
251.0
 20
-359.0
 30
0.0
  0
VERTEX
  8
06-Magenta
 10
253.0
 20
-360.0
 30
0.0
  0
SEQEND
  0
POLYLINE
  8
06-Magenta
 66
1
 10
0.0
 20
0.0
 30
0.0
 70
8
  0
VERTEX
  8
06-Magenta
 10
259.0
 20
-187.0
 30
0.0
  0
VERTEX
  8
06-Magenta
 10
260.0
 20
-186.0
 30
0.0
  0
SEQEND
  0
POLYLINE
  8
06-Magenta
 66
1
 10
0.0
 20
0.0
 30
0.0
 70
8
  0
VERTEX
  8
06-Magenta
 10
244.0
 20
-196.0
 30
0.0
  0
VERTEX
  8
06-Magenta
 10
246.0
 20
-194.0
 30
0.0
  0
SEQEND
  0
POLYLINE
  8
06-Magenta
 66
1
 10
0.0
 20
0.0
 30
0.0
 70
8
  0
VERTEX
  8
06-Magenta
 10
340.0
 20
-769.0
 30
0.0
  0
VERTEX
  8
06-Magenta
 10
340.0
 20
-766.0
 30
0.0
  0
SEQEND
  0
POLYLINE
  8
06-Magenta
 66
1
 10
0.0
 20
0.0
 30
0.0
 70
8
  0
VERTEX
  8
06-Magenta
 10
119.0
 20
-421.0
 30
0.0
  0
VERTEX
  8
06-Magenta
 10
119.0
 20
-421.0
 30
0.0
  0
SEQEND
  0
POLYLINE
  8
06-Magenta
 66
1
 10
0.0
 20
0.0
 30
0.0
 70
8
  0
VERTEX
  8
06-Magenta
 10
391.0
 20
-758.0
 30
0.0
  0
VERTEX
  8
06-Magenta
 10
397.0
 20
-758.0
 30
0.0
  0
SEQEND
  0
POLYLINE
  8
06-Magenta
 66
1
 10
0.0
 20
0.0
 30
0.0
 70
8
  0
VERTEX
  8
06-Magenta
 10
502.0
 20
-764.0
 30
0.0
  0
VERTEX
  8
06-Magenta
 10
503.0
 20
-764.0
 30
0.0
  0
SEQEND
  0
POLYLINE
  8
06-Magenta
 66
1
 10
0.0
 20
0.0
 30
0.0
 70
8
  0
VERTEX
  8
06-Magenta
 10
144.0
 20
-421.0
 30
0.0
  0
VERTEX
  8
06-Magenta
 10
144.0
 20
-421.0
 30
0.0
  0
SEQEND
  0
POLYLINE
  8
06-Magenta
 66
1
 10
0.0
 20
0.0
 30
0.0
 70
8
  0
VERTEX
  8
06-Magenta
 10
122.0
 20
-564.0
 30
0.0
  0
VERTEX
  8
06-Magenta
 10
122.0
 20
-558.0
 30
0.0
  0
SEQEND
  0
POLYLINE
  8
06-Magenta
 66
1
 10
0.0
 20
0.0
 30
0.0
 70
8
  0
VERTEX
  8
06-Magenta
 10
153.0
 20
-248.0
 30
0.0
  0
VERTEX
  8
06-Magenta
 10
153.0
 20
-248.0
 30
0.0
  0
SEQEND
  0
POLYLINE
  8
06-Magenta
 66
1
 10
0.0
 20
0.0
 30
0.0
 70
8
  0
VERTEX
  8
06-Magenta
 10
244.0
 20
-361.0
 30
0.0
  0
VERTEX
  8
06-Magenta
 10
244.0
 20
-361.0
 30
0.0
  0
SEQEND
  0
POLYLINE
  8
06-Magenta
 66
1
 10
0.0
 20
0.0
 30
0.0
 70
8
  0
VERTEX
  8
06-Magenta
 10
151.0
 20
-250.0
 30
0.0
  0
VERTEX
  8
06-Magenta
 10
152.0
 20
-249.0
 30
0.0
  0
SEQEND
  0
POLYLINE
  8
06-Magenta
 66
1
 10
0.0
 20
0.0
 30
0.0
 70
8
  0
VERTEX
  8
06-Magenta
 10
244.0
 20
-310.0
 30
0.0
  0
VERTEX
  8
06-Magenta
 10
244.0
 20
-311.0
 30
0.0
  0
SEQEND
  0
POLYLINE
  8
06-Magenta
 66
1
 10
0.0
 20
0.0
 30
0.0
 70
8
  0
VERTEX
  8
06-Magenta
 10
148.0
 20
-252.0
 30
0.0
  0
VERTEX
  8
06-Magenta
 10
149.0
 20
-251.0
 30
0.0
  0
SEQEND
  0
POLYLINE
  8
06-Magenta
 66
1
 10
0.0
 20
0.0
 30
0.0
 70
8
  0
VERTEX
  8
06-Magenta
 10
122.0
 20
-587.0
 30
0.0
  0
VERTEX
  8
06-Magenta
 10
122.0
 20
-587.0
 30
0.0
  0
SEQEND
  0
POLYLINE
  8
06-Magenta
 66
1
 10
0.0
 20
0.0
 30
0.0
 70
8
  0
VERTEX
  8
06-Magenta
 10
366.0
 20
-759.0
 30
0.0
  0
VERTEX
  8
06-Magenta
 10
367.0
 20
-759.0
 30
0.0
  0
SEQEND
  0
POLYLINE
  8
06-Magenta
 66
1
 10
0.0
 20
0.0
 30
0.0
 70
8
  0
VERTEX
  8
06-Magenta
 10
290.0
 20
-168.0
 30
0.0
  0
VERTEX
  8
06-Magenta
 10
290.0
 20
-168.0
 30
0.0
  0
SEQEND
  0
POLYLINE
  8
06-Magenta
 66
1
 10
0.0
 20
0.0
 30
0.0
 70
8
  0
VERTEX
  8
06-Magenta
 10
252.0
 20
-748.0
 30
0.0
  0
VERTEX
  8
06-Magenta
 10
254.0
 20
-748.0
 30
0.0
  0
SEQEND
  0
POLYLINE
  8
06-Magenta
 66
1
 10
0.0
 20
0.0
 30
0.0
 70
8
  0
VERTEX
  8
06-Magenta
 10
159.0
 20
-632.0
 30
0.0
  0
VERTEX
  8
06-Magenta
 10
159.0
 20
-632.0
 30
0.0
  0
SEQEND
  0
POLYLINE
  8
06-Magenta
 66
1
 10
0.0
 20
0.0
 30
0.0
 70
8
  0
VERTEX
  8
06-Magenta
 10
206.0
 20
-219.0
 30
0.0
  0
VERTEX
  8
06-Magenta
 10
206.0
 20
-219.0
 30
0.0
  0
SEQEND
  0
POLYLINE
  8
06-Magenta
 66
1
 10
0.0
 20
0.0
 30
0.0
 70
8
  0
VERTEX
  8
06-Magenta
 10
471.0
 20
-759.0
 30
0.0
  0
VERTEX
  8
06-Magenta
 10
474.0
 20
-759.0
 30
0.0
  0
SEQEND
  0
POLYLINE
  8
06-Magenta
 66
1
 10
0.0
 20
0.0
 30
0.0
 70
8
  0
VERTEX
  8
06-Magenta
 10
232.0
 20
-240.0
 30
0.0
  0
VERTEX
  8
06-Magenta
 10
235.0
 20
-244.0
 30
0.0
  0
SEQEND
  0
POLYLINE
  8
06-Magenta
 66
1
 10
0.0
 20
0.0
 30
0.0
 70
8
  0
VERTEX
  8
06-Magenta
 10
200.0
 20
-222.0
 30
0.0
  0
VERTEX
  8
06-Magenta
 10
200.0
 20
-222.0
 30
0.0
  0
SEQEND
  0
POLYLINE
  8
06-Magenta
 66
1
 10
0.0
 20
0.0
 30
0.0
 70
8
  0
VERTEX
  8
06-Magenta
 10
132.0
 20
-260.0
 30
0.0
  0
VERTEX
  8
06-Magenta
 10
133.0
 20
-259.0
 30
0.0
  0
SEQEND
  0
ENDSEC
  0
EOF
